<?xml version="1.0" standalone="no"?>
<!DOCTYPE svg PUBLIC "-//W3C//DTD SVG 1.1//EN" "http://www.w3.org/Graphics/SVG/1.1/DTD/svg11.dtd" >
<svg xmlns="http://www.w3.org/2000/svg" xmlns:xlink="http://www.w3.org/1999/xlink" version="1.1">
<metadata></metadata>
<defs>
<font id="share-techexpregular" horiz-adv-x="471" >
<font-face units-per-em="2048" ascent="1655" descent="-393" />
<missing-glyph horiz-adv-x="532" />
<glyph horiz-adv-x="0" />
<glyph horiz-adv-x="0" />
<glyph horiz-adv-x="682" />
<glyph unicode="&#xd;" horiz-adv-x="532" />
<glyph unicode=" "  horiz-adv-x="532" />
<glyph unicode="&#x09;" horiz-adv-x="532" />
<glyph unicode="&#xa0;" horiz-adv-x="532" />
<glyph unicode="!" horiz-adv-x="1126" d="M952 317h-778v154h778v-154zM952 727h-778v154h778v-154zM174 1061v160q110 67 229 67q56 0 171 -40t167 -40q103 0 211 74v-160q-45 -30 -108 -48.5t-121 -18.5q-57 0 -169 40t-169 40q-103 0 -211 -74z" />
<glyph unicode="&#x22;" horiz-adv-x="1044" d="M174 702v164q160 72 199 72h30q25 0 135.5 -41t133.5 -41h20q11 0 55.5 18.5t83.5 37.5l39 18v-164q-145 -72 -180 -72h-31q-12 0 -128 41t-138 41h-20q-13 0 -62.5 -18.5t-92.5 -37.5zM174 356v164q160 72 199 72h30q25 0 135.5 -41t133.5 -41h20q11 0 55.5 18.5 t83.5 37.5l39 18v-164q-145 -72 -180 -72h-31q-12 0 -128 41t-138 41h-20q-13 0 -62.5 -18.5t-92.5 -37.5z" />
<glyph unicode="#" horiz-adv-x="1044" d="M993 0h-942l365 1434h227zM772 154l-244 1126l-256 -1126h500z" />
<glyph unicode="$" horiz-adv-x="593" d="M379 -225h-164v737h164v-737zM379 922h-164v737h164v-737z" />
<glyph unicode="%" horiz-adv-x="962" d="M881 717l-287 -717h-229l-283 717l287 717h225zM702 717l-221 573l-221 -573l221 -574z" />
<glyph unicode="&#x26;" horiz-adv-x="501" d="M156 -225h194v-185h-194v185z" />
<glyph unicode="'" d="M338 532h-205v205h205v-205z" />
<glyph unicode="(" horiz-adv-x="501" d="M348 1249h-194v185h194v-185z" />
<glyph unicode=")" horiz-adv-x="532" d="M455 1296q0 -84 -51.5 -129t-131.5 -45h-12q-80 0 -131 45t-51 129v60q0 86 50.5 130t131.5 44h12q81 0 132 -44.5t51 -129.5v-60zM338 1294v64q0 78 -66 78h-12q-36 0 -53 -22t-17 -56v-64q0 -34 17 -55.5t53 -21.5h12q66 0 66 77z" />
<glyph unicode="*" horiz-adv-x="948" d="M528 1526l-260 -301h-186l211 301h235zM877 1526l-261 -301h-186l211 301h236z" />
<glyph unicode="+" horiz-adv-x="651" d="M516 -369h-182q-26 0 -47 3t-47 14.5t-43.5 31t-30 57t-12.5 89.5v297h151v-297q0 -32 16 -44.5t50 -12.5h145v-138z" />
<glyph unicode="," horiz-adv-x="784" d="M72 1462h198l123 -153l123 153h197l-230 -276h-180z" />
<glyph unicode="-" horiz-adv-x="1013" d="M840 563h-666v154h666v-154z" />
<glyph unicode="." horiz-adv-x="501" d="M338 0h-174v1024h174v-1024z" />
<glyph unicode="/" d="M645 1659l-655 -1864h-164l655 1864h164z" />
<glyph unicode="0" horiz-adv-x="974" d="M854 348q0 -172 -90 -260t-254 -88h-25q-166 0 -265 89t-99 259v328q0 170 98.5 259t265.5 89h25q165 0 254.5 -88t89.5 -260v-328zM680 309v406q0 63 -48 109t-122 46h-45q-74 0 -122 -46t-48 -109v-406q0 -63 48 -109t122 -46h45q74 0 122 46t48 109z" />
<glyph unicode="1" horiz-adv-x="839" d="M752 0h-625v154h248v741l-269 -107v164l248 103h195v-901h203v-154z" />
<glyph unicode="2" horiz-adv-x="839" d="M737 0h-647v180l344 305q55 49 73.5 86.5t18.5 102.5v82q0 50 -33.5 81t-105.5 31h-256v156h236q166 0 252 -66.5t86 -220.5v-45q0 -116 -25 -177.5t-121 -145.5l-242 -213h420v-156z" />
<glyph unicode="3" horiz-adv-x="808" d="M682 -25q0 -169 -82 -246t-266 -77h-242v153h260q78 0 115 36t37 114v201q0 67 -41.5 107t-108.5 40h-198v154h178q63 0 106 41t43 108v148q0 77 -36 112t-113 35h-242v154h217q353 0 353 -320v-108q0 -159 -113 -238q133 -73 133 -252v-162z" />
<glyph unicode="4" horiz-adv-x="886" d="M844 0h-144v-348h-170v348h-409v172l203 883h165l-196 -905h239v407h168v-407h144v-150z" />
<glyph unicode="5" horiz-adv-x="819" d="M707 -25q0 -169 -82.5 -246t-266.5 -77h-247v153h266q78 0 114.5 36t36.5 114v233q0 67 -41.5 107.5t-107.5 40.5h-248v719h545v-154h-371v-412h64q157 0 247.5 -78t90.5 -241v-195z" />
<glyph unicode="6" horiz-adv-x="927" d="M829 348q0 -167 -92.5 -257.5t-230.5 -90.5h-51q-139 0 -231.5 90.5t-92.5 257.5v737q0 173 93.5 261t271.5 88h235v-156h-256q-75 0 -122.5 -45.5t-47.5 -108.5v-223h180q176 0 260 -78t84 -250v-225zM506 748h-201v-439q0 -65 43 -110t117 -45h31q73 0 116 45t43 110 v303q0 64 -37.5 100t-111.5 36z" />
<glyph unicode="7" horiz-adv-x="768" d="M698 856l-329 -1204h-179l342 1249h-458v154h624v-199z" />
<glyph unicode="8" horiz-adv-x="995" d="M868 324q0 -170 -82 -247t-266 -77h-43q-184 0 -266 77t-82 247v172q0 179 133 252q-108 76 -108 237v129q0 320 331 320h27q159 0 245.5 -78t86.5 -242v-129q0 -161 -109 -237q133 -73 133 -252v-172zM690 514q0 67 -41.5 107.5t-107.5 40.5h-84q-67 0 -108.5 -40.5 t-41.5 -107.5v-211q0 -76 32.5 -112.5t102.5 -36.5h97q78 0 114.5 35.5t36.5 113.5v211zM520 1280h-59q-69 -3 -99 -38t-30 -109v-168q0 -65 37.5 -106t95.5 -44h55q63 0 104.5 41t41.5 109v168q0 78 -34.5 112.5t-111.5 34.5z" />
<glyph unicode="9" horiz-adv-x="927" d="M102 707q0 167 92.5 257.5t231.5 90.5h51q139 0 231.5 -90.5t92.5 -257.5v-707q0 -173 -93 -260.5t-272 -87.5h-215v155h236q75 0 122.5 45.5t47.5 108.5v217h-181q-176 0 -260 78t-84 250v201zM426 332h201v413q0 65 -43.5 110.5t-116.5 45.5h-31q-73 0 -116.5 -45.5 t-43.5 -110.5v-278q0 -63 37.5 -99t112.5 -36z" />
<glyph unicode=":" d="M338 532h-205v205h205v-205z" />
<glyph unicode=";" d="M338 532h-205v205h205v-205z" />
<glyph unicode="&#x3c;" horiz-adv-x="1126" d="M952 256l-778 317v215l778 367v-188l-630 -279l630 -239v-193zM952 0h-778v154h778v-154z" />
<glyph unicode="=" horiz-adv-x="1126" d="M952 768h-227l-160 -256h387v-154h-481l-133 -215h-164l133 215h-133v154h227l160 256h-387v154h481l133 215h164l-133 -215h133v-154z" />
<glyph unicode="&#x3e;" horiz-adv-x="1126" d="M952 573l-778 -317v193l631 239l-631 279v188l778 -367v-215zM952 0h-778v154h778v-154z" />
<glyph unicode="?" horiz-adv-x="1167" d="M59 211l146 145q-25 67 -25 160v201q0 95 25 162l-146 147l117 117l139 -139q73 40 213 40h109q134 0 213 -43l141 142l117 -117l-150 -149q27 -65 27 -160v-201q0 -93 -24 -158l147 -147l-117 -117l-137 137q-82 -43 -217 -43h-109q-141 0 -215 43l-137 -137zM811 475 v283q0 63 -39.5 98t-114.5 35h-149q-75 0 -114.5 -35t-39.5 -98v-283q0 -63 39.5 -98t114.5 -35h149q75 0 114.5 35t39.5 98z" />
<glyph unicode="@" horiz-adv-x="1638" d="M1423 348q0 -170 -92.5 -259t-251.5 -89h-520q-159 0 -251.5 89t-92.5 259v737q0 172 92.5 260.5t251.5 88.5h520q159 0 251.5 -88.5t92.5 -260.5v-737zM1266 309v815q0 67 -50 119.5t-137 52.5h-520q-88 0 -137 -52t-49 -120v-815q0 -68 49 -120t137 -52h520 q89 0 138 52t49 120zM1061 809q0 -90 -50.5 -138t-142.5 -48h-120v-297h-115v786h219q209 0 209 -176v-127zM940 807v129q0 42 -20.5 59t-67.5 17h-104v-287h104q46 0 67 19.5t21 62.5z" />
<glyph unicode="A" horiz-adv-x="839" d="M696 670q0 -129 -69.5 -195.5t-188.5 -66.5h-37q-119 0 -188.5 66.5t-69.5 195.5v512q0 129 69.5 195.5t188.5 66.5h37q119 0 188.5 -66.5t69.5 -195.5v-512zM545 655v541q0 50 -26.5 83.5t-80.5 33.5h-37q-53 0 -79.5 -33.5t-26.5 -83.5v-541q0 -50 26 -83t80 -33h37 q54 0 80.5 33t26.5 83z" />
<glyph unicode="B" horiz-adv-x="839" d="M698 420h-489v131h186v745l-202 -79v139l186 78h168v-883h151v-131z" />
<glyph unicode="C" horiz-adv-x="839" d="M670 420h-492v149l230 314q68 93 85 131t17 114v74q0 101 -125 101h-176v131h162q152 0 220 -58.5t68 -185.5v-47q0 -111 -18 -159.5t-77 -127.5q-10 -13 -15 -20l-211 -285h332v-131z" />
<glyph unicode="D" horiz-adv-x="839" d="M649 664q0 -128 -60.5 -186t-199.5 -58h-196v131h190q57 0 86 23t29 79v113q0 50 -31 78t-82 28h-145v132h129q49 0 80.5 27.5t31.5 78.5v86q0 59 -26 83t-86 24h-176v131h178q264 0 264 -240v-72q0 -115 -90 -178q104 -55 104 -188v-92z" />
<glyph unicode="E" horiz-adv-x="839" d="M705 659h-103v-239h-151v239h-301v152l151 623h141l-149 -643h158l14 292h137v-292h103v-132z" />
<glyph unicode="F" horiz-adv-x="839" d="M659 664q0 -128 -61.5 -186t-198.5 -58h-206v131h200q115 0 115 106v146q0 50 -31.5 79t-81.5 29h-186v523h430v-129h-281v-263h50q117 0 184 -60t67 -183v-135z" />
<glyph unicode="G" horiz-adv-x="839" d="M696 682q0 -126 -68.5 -194t-172.5 -68h-60q-104 0 -172.5 68t-68.5 194v479q0 132 70 202.5t202 70.5h199v-131h-203q-57 0 -88 -30t-31 -77v-131h131q131 0 196.5 -61t65.5 -191v-131zM434 934h-131v-266q0 -117 100 -117h43q101 0 101 117v159q0 48 -28.5 77.5 t-84.5 29.5z" />
<glyph unicode="H" horiz-adv-x="839" d="M674 1268l-242 -848h-151l249 880h-325v134h469v-166z" />
<glyph unicode="I" horiz-adv-x="839" d="M705 664q0 -126 -70.5 -185t-210.5 -59h-8q-140 0 -210.5 59t-70.5 185v96q0 134 98 188q-79 57 -79 178v68q0 121 70.5 180.5t191.5 59.5h8q119 0 190.5 -59.5t71.5 -180.5v-68q0 -120 -80 -178q99 -55 99 -188v-96zM555 770q0 51 -27.5 80t-78.5 29h-56 q-51 0 -79.5 -29t-28.5 -80v-111q0 -56 24 -83t76 -27h57q59 0 86 26t27 84v111zM436 1305h-45q-50 0 -70 -27t-20 -84v-86q0 -93 94 -100h39q48 0 76.5 25t28.5 75v86q0 60 -23 85.5t-80 25.5z" />
<glyph unicode="J" horiz-adv-x="839" d="M143 1174q0 126 69 194t173 68h59q104 0 173 -68t69 -194v-480q0 -132 -69 -202t-201 -70h-201v131h205q57 0 88 29.5t31 76.5v138h-133q-131 0 -197 61t-66 191v125zM406 928h133v260q0 51 -24.5 84t-78.5 33h-43q-100 0 -100 -117v-154q0 -48 28.5 -77t84.5 -29z" />
<glyph unicode="K" horiz-adv-x="1126" d="M803 281l-240 237l-239 -237l-115 114l237 240l-237 239l115 115l239 -237l240 237l115 -115l-238 -239l238 -240z" />
<glyph unicode="L" horiz-adv-x="1155" d="M432 0h-178v1280h-162v154h971v-154h-186v-1065q0 -33 14 -47t53 -14h31v-154h-103q-71 0 -122.5 49t-51.5 156v1075h-266v-1280z" />
<glyph unicode="M" horiz-adv-x="962" d="M870 -348h-788v192l344 703l-317 692v195h739v-154h-559l332 -733l-363 -744h612v-151z" />
<glyph unicode="N" horiz-adv-x="1495" d="M748 397q-76 -108 -238 -108h-102q-164 0 -237 81t-73 240v41q0 159 73 240.5t237 81.5h102q166 0 242 -109q76 109 233 109h102q164 0 237 -81.5t73 -240.5v-30q0 -161 -73.5 -246.5t-236.5 -85.5h-102q-161 0 -237 108zM1225 586v106q-3 68 -38.5 98.5t-109.5 30.5h-96 q-65 0 -106 -37.5t-44 -95.5v-102q0 -63 41 -104.5t109 -41.5h96q78 0 113 34.5t35 111.5zM270 676v-107q3 -68 38.5 -98.5t109.5 -30.5h96q65 0 106 37.5t44 95.5v103q0 63 -41 104t-109 41h-96q-78 0 -113 -34.5t-35 -110.5z" />
<glyph unicode="O" horiz-adv-x="1105" d="M463 262v742l-346 -277v209l434 334l436 -334v-209l-348 279v-744h-176z" />
<glyph unicode="P" horiz-adv-x="1105" d="M59 842h736l-277 350h215l334 -434l-334 -436h-215l279 352h-738v168z" />
<glyph unicode="Q" horiz-adv-x="1105" d="M870 332l-522 524l-51 -442l-150 149l72 543l545 72l149 -150l-444 -49l524 -524z" />
<glyph unicode="R" horiz-adv-x="1105" d="M145 463l525 522l-443 51l150 150l543 -72l71 -545l-149 -149l-49 444l-525 -524z" />
<glyph unicode="S" horiz-adv-x="1597" d="M1413 0h-1229v1434h1229v-1434zM1235 162v1110h-873v-1110h873z" />
<glyph unicode="T" horiz-adv-x="1597" d="M1413 -348h-1229v2089h1229v-2089zM1235 -186v1765h-873v-1765h873z" />
<glyph unicode="U" horiz-adv-x="1087" d="M934 324q0 -176 -81 -250t-267 -74h-402v666h-133v153h133v615h377q185 0 279 -74.5t94 -245.5v-790zM756 303v830q0 67 -41.5 107t-108.5 40h-244v-461h242v-153h-242v-512h242q78 0 115 35.5t37 113.5z" />
<glyph unicode="V" horiz-adv-x="839" d="M809 0h-635v674l-123 -60v164l123 60v596h178v-510l252 120v-163l-252 -121v-604h457v-156z" />
<glyph unicode="W" horiz-adv-x="1046" d="M893 614q0 -323 -348 -323h-193v-291h-178v1434h178v-267h189q173 0 262.5 -77t89.5 -242v-234zM715 594v272q0 77 -36.5 112.5t-113.5 35.5h-213v-570h213q78 0 114 36t36 114z" />
<glyph unicode="X" horiz-adv-x="888" d="M162 1731h198l123 -138l123 138h197l-230 -236h-180zM776 348q0 -173 -94.5 -260.5t-273.5 -87.5h-271v156h291q75 0 122.5 45t47.5 108v213q0 62 -32 99.5t-95 37.5h-41q-152 0 -240 89t-88 260v77q0 173 95 261t274 88h272v-156h-292q-75 0 -122.5 -45.5t-47.5 -108.5 v-155q0 -63 40.5 -105.5t106.5 -42.5h41q146 0 226.5 -84t80.5 -254v-135z" />
<glyph unicode="Y" horiz-adv-x="1005" d="M551 1487h-170l213 235h227zM965 1434l-373 -768v-666h-184v666l-367 768h197l270 -596l270 596h187z" />
<glyph unicode="Z" horiz-adv-x="892" d="M147 1731h199l123 -138l123 138h196l-229 -236h-180zM801 1253l-527 -1101h506v-152h-688v180l529 1102h-482v152h662v-181z" />
<glyph unicode="[" horiz-adv-x="1189" d="M1190 1280h-197q-33 0 -52 -17t-19 -44v-195h247v-154h-247v-870h-174v870h-379v-870h-174v870h-134v154h134v164q0 105 59 165t154 60h454q51 21 99 21h229v-154zM748 1208q0 36 4 52h-312q-33 0 -52 -17.5t-19 -44.5v-174h379v184z" />
<glyph unicode="\" horiz-adv-x="1607" d="M1444 0h-174v870h-348v-870h-174v870h-379v-870h-174v870h-134v154h134v164q0 105 59 165t154 60h454q51 21 99 21h440v-154h-408q-33 0 -52 -17t-19 -44v-195h522v-1024zM369 1198v-174h379v184q0 36 4 52h-312q-33 0 -52 -17.5t-19 -44.5z" />
<glyph unicode="]" horiz-adv-x="1607" d="M1444 0h-174v870h-348v-870h-174v870h-379v-870h-174v870h-134v154h134v164q0 105 59 165t154 60h454q51 21 99 21h440v-154h-408q-33 0 -52 -17t-19 -44v-195h522v-1024zM369 1198v-174h379v184q0 36 4 52h-312q-33 0 -52 -17.5t-19 -44.5z" />
<glyph unicode="^" horiz-adv-x="1638" d="M1012 -195h186q33 0 52.5 17.5t19.5 44.5v1003h-348v-870h-174v870h-379v-870h-174v870h-134v154h134v164q0 105 59 165t154 60h454q51 21 99 21h440v-154h-408q-33 0 -52 -17t-19 -44v-195h522v-1147q0 -105 -59 -165t-154 -60h-219v153zM369 1198v-174h379v184 q0 36 4 52h-312q-33 0 -52 -17.5t-19 -44.5z" />
<glyph unicode="_" horiz-adv-x="1044" d="M451 -195h186q33 0 52.5 17.5t19.5 44.5v1003h-349v-870h-174v870h-133v154h133v184q0 105 59.5 165.5t153.5 60.5h441v-154h-408q-33 0 -52.5 -17t-19.5 -44v-195h523v-1147q0 -105 -59 -165t-154 -60h-219v153z" />
<glyph unicode="`" horiz-adv-x="593" d="M451 481h-308v318h308v-318z" />
<glyph unicode="a" horiz-adv-x="839" d="M696 250q0 -129 -69.5 -195.5t-188.5 -66.5h-37q-119 0 -188.5 66.5t-69.5 195.5v512q0 129 69.5 195.5t188.5 66.5h37q119 0 188.5 -66.5t69.5 -195.5v-512zM545 236v540q0 50 -26.5 83.5t-80.5 33.5h-37q-53 0 -79.5 -33.5t-26.5 -83.5v-540q0 -50 26.5 -83.5 t79.5 -33.5h37q54 0 80.5 33.5t26.5 83.5z" />
<glyph unicode="b" horiz-adv-x="839" d="M698 0h-489v131h186v746l-202 -80v139l186 78h168v-883h151v-131z" />
<glyph unicode="c" horiz-adv-x="839" d="M670 0h-492v150l230 313q68 93 85 131.5t17 114.5v73q0 101 -125 101h-176v131h162q152 0 220 -58.5t68 -185.5v-47q0 -111 -18 -159.5t-77 -127.5q-10 -13 -15 -20l-211 -285h332v-131z" />
<glyph unicode="d" horiz-adv-x="839" d="M649 244q0 -128 -60.5 -186t-199.5 -58h-196v131h190q57 0 86 23t29 79v113q0 50 -31 78.5t-82 28.5h-145v131h129q49 0 80.5 27.5t31.5 78.5v86q0 59 -26 83t-86 24h-176v131h178q264 0 264 -240v-72q0 -115 -90 -178q104 -55 104 -188v-92z" />
<glyph unicode="e" horiz-adv-x="839" d="M705 240h-103v-240h-151v240h-301v151l151 623h141l-149 -643h158l14 293h137v-293h103v-131z" />
<glyph unicode="f" horiz-adv-x="839" d="M659 244q0 -128 -61.5 -186t-198.5 -58h-206v131h200q115 0 115 107v145q0 50 -31.5 79.5t-81.5 29.5h-186v522h430v-129h-281v-262h50q117 0 184 -60.5t67 -183.5v-135z" />
<glyph unicode="g" horiz-adv-x="839" d="M696 262q0 -126 -68.5 -194t-172.5 -68h-60q-104 0 -172.5 68t-68.5 194v479q0 132 70 202.5t202 70.5h199v-131h-203q-57 0 -88 -30t-31 -77v-131h131q131 0 196.5 -61t65.5 -191v-131zM434 514h-131v-266q0 -117 100 -117h43q101 0 101 117v160q0 48 -28.5 77t-84.5 29 z" />
<glyph unicode="h" horiz-adv-x="839" d="M674 848l-242 -848h-151l249 881h-325v133h469v-166z" />
<glyph unicode="i" horiz-adv-x="839" d="M705 244q0 -126 -70.5 -185t-210.5 -59h-8q-140 0 -210.5 59t-70.5 185v96q0 134 98 188q-79 57 -79 179v67q0 121 70.5 180.5t191.5 59.5h8q119 0 190.5 -59.5t71.5 -180.5v-67q0 -121 -80 -179q99 -55 99 -188v-96zM555 350q0 51 -27.5 80t-78.5 29h-56 q-51 0 -79.5 -29t-28.5 -80v-110q0 -111 100 -111h57q59 0 86 26.5t27 84.5v110zM436 885h-45q-50 0 -70 -27t-20 -84v-86q0 -93 94 -100h39q48 0 76.5 25t28.5 75v86q0 60 -23 85.5t-80 25.5z" />
<glyph unicode="j" horiz-adv-x="839" d="M143 754q0 126 69 194t173 68h59q104 0 173 -68t69 -194v-480q0 -132 -69 -202t-201 -70h-201v131h205q57 0 88 30t31 77v137h-133q-131 0 -197 61t-66 191v125zM406 508h133v260q0 51 -24.5 84t-78.5 33h-43q-100 0 -100 -117v-154q0 -48 28.5 -77t84.5 -29z" />
<glyph unicode="k" horiz-adv-x="1126" d="M952 563h-778v154h778v-154z" />
<glyph unicode="l" horiz-adv-x="1134" d="M428 0h-174v874h-162v150h950v-150h-184v-659q0 -33 16.5 -47t55.5 -14h31v-154h-103q-71 0 -122.5 49t-51.5 156v669h-256v-874z" />
<glyph unicode="m" horiz-adv-x="962" d="M133 348v225q0 172 84 250t260 78h180v223q0 63 -47.5 108.5t-122.5 45.5h-256v156h236q178 0 271 -87.5t93 -261.5v-737q0 -167 -92.5 -257.5t-230.5 -90.5h-51q-139 0 -231.5 90.5t-92.5 257.5zM657 748h-200q-74 0 -112 -36.5t-38 -99.5v-303q0 -65 43 -110t117 -45 h31q73 0 116 45t43 110v439z" />
<glyph unicode="n" horiz-adv-x="665" d="M-20 -328h186q33 0 52.5 17.5t19.5 44.5v1720q0 105 59 165t154 60h229v-153h-197q-33 0 -52 -17.5t-19 -44.5v-1720q0 -105 -59 -165t-154 -60h-219v153z" />
<glyph unicode="o" horiz-adv-x="1105" d="M643 1270v-742l346 277v-209l-434 -334l-436 334v209l348 -279v744h176z" />
<glyph unicode="p" horiz-adv-x="1105" d="M1067 674h-735l276 -350h-215l-334 434l334 436h215l-278 -352h737v-168z" />
<glyph unicode="q" horiz-adv-x="1105" d="M268 1176l523 -525l51 443l149 -150l-71 -543l-545 -71l-150 149l445 49l-525 525z" />
<glyph unicode="r" horiz-adv-x="1105" d="M993 1065l-524 -522l442 -51l-149 -150l-543 72l-72 544l150 150l49 -444l524 524z" />
<glyph unicode="s" horiz-adv-x="1597" d="M1413 0h-1229v1434h1229v-1434z" />
<glyph unicode="t" horiz-adv-x="1597" d="M1413 -348h-1229v2089h1229v-2089z" />
<glyph unicode="u" horiz-adv-x="1030" d="M567 1274l-67 -115h-168l71 123h-145v152h234l61 102h168l-74 -123q211 -66 211 -328v-737q0 -167 -92.5 -257.5t-230.5 -90.5h-52q-138 0 -230.5 90.5t-92.5 257.5v266q0 172 84 250t260 78h180v182q0 51 -32 93t-85 57zM684 788h-201q-74 0 -111.5 -36t-37.5 -99v-344 q0 -65 43 -110t117 -45h30q74 0 117 45t43 110v479z" />
<glyph unicode="v" horiz-adv-x="555" d="M461 0h-113q-71 0 -122.5 49t-51.5 156v475l-102 -66v160l102 68v592h174v-478l125 84v-163l-125 -82v-580q0 -33 16.5 -47t55.5 -14h41v-154z" />
<glyph unicode="w" horiz-adv-x="1032" d="M338 -348h-174v1782h174v-1782zM872 328q0 -173 -84.5 -250.5t-263.5 -77.5h-248v154h269q75 0 114 35t39 98v450q0 63 -39 98t-114 35h-74q-68 0 -100.5 -36t-32.5 -76l-117 59q66 207 271 207h32q180 0 264 -77t84 -251v-368z" />
<glyph unicode="x" horiz-adv-x="813" d="M702 256q0 -256 -307 -256h-264v154h285q112 0 112 92v108q0 92 -88 92h-34q-143 0 -214 62.5t-71 198.5v59q0 138 77.5 198t229.5 60h234v-154h-254q-51 0 -82 -24t-31 -68v-73q0 -47 28 -70t70 -23h29q137 0 208.5 -67t71.5 -197v-92zM111 1462h198l123 -153l123 153 h197l-230 -276h-180z" />
<glyph unicode="y" horiz-adv-x="948" d="M571 1188h-176l213 276h223zM877 1024l-297 -1114q-18 -69 -35 -111t-45 -81.5t-71 -57.5t-103 -18q-42 0 -117 12v149q58 -8 106 -8q57 0 82 92l33 113h-41l-317 1024h188l238 -846l200 846h179z" />
<glyph unicode="z" horiz-adv-x="825" d="M723 842l-442 -690h421v-152h-610v164l445 708h-404v152h590v-182zM123 1462h199l122 -153l123 153h197l-229 -276h-181z" />
<glyph unicode="{" horiz-adv-x="931" d="M809 324l-686 358l686 358v-716z" />
<glyph unicode="|" horiz-adv-x="931" d="M125 1040l686 -358l-686 -358v716z" />
<glyph unicode="}" horiz-adv-x="1406" d="M166 682l508 270v-192h571v-154h-571v-192z" />
<glyph unicode="~" horiz-adv-x="1406" d="M1243 682l-508 -270v192h-571v154h571v192z" />
<glyph unicode="&#xa1;" d="M338 532h-205v205h205v-205z" />
<glyph unicode="&#xa2;" d="M338 532h-205v205h205v-205z" />
<glyph unicode="&#xa3;" d="M338 532h-205v205h205v-205z" />
<glyph unicode="&#xa4;" horiz-adv-x="1167" d="M59 211l146 145q-25 67 -25 160v201q0 95 25 162l-146 147l117 117l139 -139q73 40 213 40h109q134 0 213 -43l141 142l117 -117l-150 -149q27 -65 27 -160v-201q0 -93 -24 -158l147 -147l-117 -117l-137 137q-82 -43 -217 -43h-109q-141 0 -215 43l-137 -137zM811 475 v283q0 63 -39.5 98t-114.5 35h-149q-75 0 -114.5 -35t-39.5 -98v-283q0 -63 39.5 -98t114.5 -35h149q75 0 114.5 35t39.5 98z" />
<glyph unicode="&#xa5;" d="M338 532h-205v205h205v-205z" />
<glyph unicode="&#xa6;" d="M338 532h-205v205h205v-205z" />
<glyph unicode="&#xa7;" d="M338 532h-205v205h205v-205z" />
<glyph unicode="&#xa8;" d="M338 532h-205v205h205v-205z" />
<glyph unicode="&#xa9;" d="M338 532h-205v205h205v-205z" />
<glyph unicode="&#xaa;" d="M338 532h-205v205h205v-205z" />
<glyph unicode="&#xab;" d="M338 532h-205v205h205v-205z" />
<glyph unicode="&#xac;" d="M338 532h-205v205h205v-205z" />
<glyph unicode="&#xad;" horiz-adv-x="1013" d="M840 563h-666v154h666v-154z" />
<glyph unicode="&#xae;" d="M338 532h-205v205h205v-205z" />
<glyph unicode="&#xaf;" d="M338 532h-205v205h205v-205z" />
<glyph unicode="&#xb0;" d="M338 532h-205v205h205v-205z" />
<glyph unicode="&#xb1;" d="M338 532h-205v205h205v-205z" />
<glyph unicode="&#xb2;" d="M338 532h-205v205h205v-205z" />
<glyph unicode="&#xb3;" d="M338 532h-205v205h205v-205z" />
<glyph unicode="&#xb4;" d="M338 532h-205v205h205v-205z" />
<glyph unicode="&#xb5;" d="M338 532h-205v205h205v-205z" />
<glyph unicode="&#xb6;" horiz-adv-x="1044" d="M629 0h-170v766h-13q-181 0 -261.5 70t-80.5 243v27q0 173 82 250.5t260 77.5h183v-144h-205q-74 0 -114 -39.5t-40 -103.5v-109q0 -63 39.5 -98t114.5 -35h205v-905zM905 0h-164v1434h164v-1434z" />
<glyph unicode="&#xb7;" d="M338 532h-205v205h205v-205z" />
<glyph unicode="&#xb8;" d="M338 532h-205v205h205v-205z" />
<glyph unicode="&#xb9;" d="M338 532h-205v205h205v-205z" />
<glyph unicode="&#xba;" d="M338 532h-205v205h205v-205z" />
<glyph unicode="&#xbb;" d="M338 532h-205v205h205v-205z" />
<glyph unicode="&#xbc;" d="M338 532h-205v205h205v-205z" />
<glyph unicode="&#xbd;" d="M338 532h-205v205h205v-205z" />
<glyph unicode="&#xbe;" d="M338 532h-205v205h205v-205z" />
<glyph unicode="&#xbf;" d="M338 532h-205v205h205v-205z" />
<glyph unicode="&#xc0;" d="M338 532h-205v205h205v-205z" />
<glyph unicode="&#xc1;" d="M338 532h-205v205h205v-205z" />
<glyph unicode="&#xc2;" d="M338 532h-205v205h205v-205z" />
<glyph unicode="&#xc3;" d="M338 532h-205v205h205v-205z" />
<glyph unicode="&#xc4;" d="M338 532h-205v205h205v-205z" />
<glyph unicode="&#xc5;" d="M338 532h-205v205h205v-205z" />
<glyph unicode="&#xc6;" d="M338 532h-205v205h205v-205z" />
<glyph unicode="&#xc7;" d="M338 532h-205v205h205v-205z" />
<glyph unicode="&#xc8;" d="M338 532h-205v205h205v-205z" />
<glyph unicode="&#xc9;" d="M338 532h-205v205h205v-205z" />
<glyph unicode="&#xca;" d="M338 532h-205v205h205v-205z" />
<glyph unicode="&#xcb;" d="M338 532h-205v205h205v-205z" />
<glyph unicode="&#xcc;" d="M338 532h-205v205h205v-205z" />
<glyph unicode="&#xcd;" d="M338 532h-205v205h205v-205z" />
<glyph unicode="&#xce;" d="M338 532h-205v205h205v-205z" />
<glyph unicode="&#xcf;" d="M338 532h-205v205h205v-205z" />
<glyph unicode="&#xd0;" d="M338 532h-205v205h205v-205z" />
<glyph unicode="&#xd1;" d="M338 532h-205v205h205v-205z" />
<glyph unicode="&#xd2;" d="M338 532h-205v205h205v-205z" />
<glyph unicode="&#xd3;" d="M338 532h-205v205h205v-205z" />
<glyph unicode="&#xd4;" d="M338 532h-205v205h205v-205z" />
<glyph unicode="&#xd5;" d="M338 532h-205v205h205v-205z" />
<glyph unicode="&#xd6;" d="M338 532h-205v205h205v-205z" />
<glyph unicode="&#xd7;" d="M338 532h-205v205h205v-205z" />
<glyph unicode="&#xd8;" d="M338 532h-205v205h205v-205z" />
<glyph unicode="&#xd9;" d="M338 532h-205v205h205v-205z" />
<glyph unicode="&#xda;" d="M338 532h-205v205h205v-205z" />
<glyph unicode="&#xdb;" d="M338 532h-205v205h205v-205z" />
<glyph unicode="&#xdc;" d="M338 532h-205v205h205v-205z" />
<glyph unicode="&#xdd;" d="M338 532h-205v205h205v-205z" />
<glyph unicode="&#xde;" d="M338 532h-205v205h205v-205z" />
<glyph unicode="&#xdf;" d="M338 532h-205v205h205v-205z" />
<glyph unicode="&#xe0;" d="M338 532h-205v205h205v-205z" />
<glyph unicode="&#xe1;" d="M338 532h-205v205h205v-205z" />
<glyph unicode="&#xe2;" d="M338 532h-205v205h205v-205z" />
<glyph unicode="&#xe3;" d="M338 532h-205v205h205v-205z" />
<glyph unicode="&#xe4;" d="M338 532h-205v205h205v-205z" />
<glyph unicode="&#xe5;" d="M338 532h-205v205h205v-205z" />
<glyph unicode="&#xe6;" d="M338 532h-205v205h205v-205z" />
<glyph unicode="&#xe7;" d="M338 532h-205v205h205v-205z" />
<glyph unicode="&#xe8;" d="M338 532h-205v205h205v-205z" />
<glyph unicode="&#xe9;" d="M338 532h-205v205h205v-205z" />
<glyph unicode="&#xea;" d="M338 532h-205v205h205v-205z" />
<glyph unicode="&#xeb;" d="M338 532h-205v205h205v-205z" />
<glyph unicode="&#xec;" d="M338 532h-205v205h205v-205z" />
<glyph unicode="&#xed;" d="M338 532h-205v205h205v-205z" />
<glyph unicode="&#xee;" d="M338 532h-205v205h205v-205z" />
<glyph unicode="&#xef;" d="M338 532h-205v205h205v-205z" />
<glyph unicode="&#xf0;" d="M338 532h-205v205h205v-205z" />
<glyph unicode="&#xf1;" d="M338 532h-205v205h205v-205z" />
<glyph unicode="&#xf2;" d="M338 532h-205v205h205v-205z" />
<glyph unicode="&#xf3;" d="M338 532h-205v205h205v-205z" />
<glyph unicode="&#xf4;" d="M338 532h-205v205h205v-205z" />
<glyph unicode="&#xf5;" d="M338 532h-205v205h205v-205z" />
<glyph unicode="&#xf6;" d="M338 532h-205v205h205v-205z" />
<glyph unicode="&#xf7;" d="M338 532h-205v205h205v-205z" />
<glyph unicode="&#xf8;" d="M338 532h-205v205h205v-205z" />
<glyph unicode="&#xf9;" d="M338 532h-205v205h205v-205z" />
<glyph unicode="&#xfa;" d="M338 532h-205v205h205v-205z" />
<glyph unicode="&#xfb;" d="M338 532h-205v205h205v-205z" />
<glyph unicode="&#xfc;" d="M338 532h-205v205h205v-205z" />
<glyph unicode="&#xfd;" d="M338 532h-205v205h205v-205z" />
<glyph unicode="&#xfe;" d="M338 532h-205v205h205v-205z" />
<glyph unicode="&#xff;" d="M338 532h-205v205h205v-205z" />
<glyph unicode="&#x152;" d="M338 532h-205v205h205v-205z" />
<glyph unicode="&#x153;" d="M338 532h-205v205h205v-205z" />
<glyph unicode="&#x178;" d="M338 532h-205v205h205v-205z" />
<glyph unicode="&#x2c6;" d="M338 532h-205v205h205v-205z" />
<glyph unicode="&#x2dc;" d="M338 532h-205v205h205v-205z" />
<glyph unicode="&#x2000;" horiz-adv-x="870" />
<glyph unicode="&#x2001;" horiz-adv-x="1741" />
<glyph unicode="&#x2002;" horiz-adv-x="870" />
<glyph unicode="&#x2003;" horiz-adv-x="1741" />
<glyph unicode="&#x2004;" horiz-adv-x="580" />
<glyph unicode="&#x2005;" horiz-adv-x="435" />
<glyph unicode="&#x2006;" horiz-adv-x="290" />
<glyph unicode="&#x2007;" horiz-adv-x="290" />
<glyph unicode="&#x2008;" horiz-adv-x="217" />
<glyph unicode="&#x2009;" horiz-adv-x="348" />
<glyph unicode="&#x200a;" horiz-adv-x="96" />
<glyph unicode="&#x2010;" horiz-adv-x="1013" d="M840 563h-666v154h666v-154z" />
<glyph unicode="&#x2011;" horiz-adv-x="1013" d="M840 563h-666v154h666v-154z" />
<glyph unicode="&#x2012;" horiz-adv-x="1013" d="M840 563h-666v154h666v-154z" />
<glyph unicode="&#x2013;" d="M338 532h-205v205h205v-205z" />
<glyph unicode="&#x2014;" d="M338 532h-205v205h205v-205z" />
<glyph unicode="&#x2018;" d="M338 532h-205v205h205v-205z" />
<glyph unicode="&#x2019;" d="M338 532h-205v205h205v-205z" />
<glyph unicode="&#x201a;" d="M338 532h-205v205h205v-205z" />
<glyph unicode="&#x201c;" d="M338 532h-205v205h205v-205z" />
<glyph unicode="&#x201d;" d="M338 532h-205v205h205v-205z" />
<glyph unicode="&#x201e;" d="M338 532h-205v205h205v-205z" />
<glyph unicode="&#x2022;" d="M338 532h-205v205h205v-205z" />
<glyph unicode="&#x2026;" d="M338 532h-205v205h205v-205z" />
<glyph unicode="&#x202f;" horiz-adv-x="348" />
<glyph unicode="&#x2039;" d="M338 532h-205v205h205v-205z" />
<glyph unicode="&#x203a;" d="M338 532h-205v205h205v-205z" />
<glyph unicode="&#x205f;" horiz-adv-x="435" />
<glyph unicode="&#x20ac;" d="M338 532h-205v205h205v-205z" />
<glyph unicode="&#x2122;" d="M338 532h-205v205h205v-205z" />
<glyph unicode="&#x25fc;" horiz-adv-x="1464" d="M0 1464h1464v-1464h-1464v1464z" />
<glyph unicode="&#xfb01;" d="M338 532h-205v205h205v-205z" />
<glyph unicode="&#xfb02;" d="M338 532h-205v205h205v-205z" />
</font>
</defs>
</svg>
