<?xml version="1.0" standalone="no"?>
<!DOCTYPE svg PUBLIC "-//W3C//DTD SVG 1.1//EN" "http://www.w3.org/Graphics/SVG/1.1/DTD/svg11.dtd" >
<svg xmlns="http://www.w3.org/2000/svg" xmlns:xlink="http://www.w3.org/1999/xlink" version="1.1">
<metadata></metadata>
<defs>
<font id="share-techmonoexpregular" horiz-adv-x="1105" >
<font-face units-per-em="2048" ascent="1655" descent="-393" />
<missing-glyph horiz-adv-x="500" />
<glyph horiz-adv-x="0" />
<glyph horiz-adv-x="0" />
<glyph horiz-adv-x="682" />
<glyph unicode="&#xd;" />
<glyph unicode=" " />
<glyph unicode="!" d="M942 317h-778v154h778v-154zM942 727h-778v154h778v-154zM164 1061v160q110 67 229 67q56 0 171 -40t167 -40q103 0 211 74v-160q-45 -30 -108 -48.5t-121 -18.5q-57 0 -169 40t-169 40q-103 0 -211 -74z" />
<glyph unicode="&#x22;" d="M205 702v164q159 72 198 72h31q25 0 135 -41t133 -41h21q11 0 55.5 18.5t83.5 37.5l39 18v-164q-145 -72 -180 -72h-31q-12 0 -128 41t-138 41h-21q-13 0 -62.5 -18.5t-92.5 -37.5zM205 356v164q159 72 198 72h31q25 0 135 -41t133 -41h21q11 0 55.5 18.5t83.5 37.5 l39 18v-164q-145 -72 -180 -72h-31q-12 0 -128 41t-138 41h-21q-13 0 -62.5 -18.5t-92.5 -37.5z" />
<glyph unicode="#" d="M1024 0h-942l364 1434h228zM803 154l-244 1126l-256 -1126h500z" />
<glyph unicode="$" d="M635 -225h-164v737h164v-737zM635 922h-164v737h164v-737z" />
<glyph unicode="%" d="M952 717l-286 -717h-230l-282 717l286 717h226zM774 717l-221 573l-221 -573l221 -574z" />
<glyph unicode="&#x26;" d="M455 -225h194v-185h-194v185z" />
<glyph unicode="'" d="M655 532h-204v205h204v-205z" />
<glyph unicode="(" d="M649 1249h-194v185h194v-185z" />
<glyph unicode=")" d="M741 1296q0 -84 -51 -129t-131 -45h-12q-80 0 -131 45t-51 129v60q0 86 50.5 130t131.5 44h12q81 0 131.5 -44t50.5 -130v-60zM625 1294v64q0 78 -66 78h-12q-36 0 -53 -22t-17 -56v-64q0 -34 17 -55.5t53 -21.5h12q66 0 66 77z" />
<glyph unicode="*" d="M602 1526l-260 -301h-186l211 301h235zM950 1526l-260 -301h-186l211 301h235z" />
<glyph unicode="+" d="M733 -369h-182q-26 0 -47 3t-47 14.5t-43.5 31t-30 57t-12.5 89.5v297h151v-297q0 -32 16 -44.5t50 -12.5h145v-138z" />
<glyph unicode="," d="M231 1462h199l123 -153l123 153h196l-229 -276h-180z" />
<glyph unicode="-" d="M885 563h-666v154h666v-154z" />
<glyph unicode="." d="M639 0h-174v1024h174v-1024z" />
<glyph unicode="/" d="M963 1659l-656 -1864h-164l656 1864h164z" />
<glyph unicode="0" d="M1044 0h-983v983h492v-491h491v-492zM1044 737h-245v246h245v-246z" />
<glyph unicode="1" d="M655 532h-204v205h204v-205z" />
<glyph unicode="2" d="M655 532h-204v205h204v-205z" />
<glyph unicode="3" d="M655 532h-204v205h204v-205z" />
<glyph unicode="4" d="M655 532h-204v205h204v-205z" />
<glyph unicode="5" d="M655 532h-204v205h204v-205z" />
<glyph unicode="6" d="M655 532h-204v205h204v-205z" />
<glyph unicode="7" d="M655 532h-204v205h204v-205z" />
<glyph unicode="8" d="M655 532h-204v205h204v-205z" />
<glyph unicode="9" d="M655 532h-204v205h204v-205z" />
<glyph unicode=":" d="M655 532h-204v205h204v-205z" />
<glyph unicode=";" d="M655 532h-204v205h204v-205z" />
<glyph unicode="&#x3c;" d="M942 256l-778 317v215l778 367v-188l-631 -279l631 -239v-193zM942 0h-778v154h778v-154z" />
<glyph unicode="=" d="M942 768h-227l-160 -256h387v-154h-481l-133 -215h-164l133 215h-133v154h227l160 256h-387v154h481l133 215h164l-133 -215h133v-154z" />
<glyph unicode="&#x3e;" d="M942 573l-778 -317v193l631 239l-631 279v188l778 -367v-215zM942 0h-778v154h778v-154z" />
<glyph unicode="?" d="M29 211l145 145q-24 64 -24 160v201q0 97 24 162l-145 147l116 117l140 -139q73 40 213 40h108q134 0 213 -43l142 142l116 -117l-149 -149q26 -62 26 -160v-201q0 -93 -24 -158l147 -147l-116 -117l-138 137q-82 -43 -217 -43h-108q-141 0 -215 43l-138 -137zM780 475 v283q0 63 -39 98t-114 35h-150q-75 0 -114 -35t-39 -98v-283q0 -63 39 -98t114 -35h150q75 0 114 35t39 98z" />
<glyph unicode="@" d="M1055 348q0 -171 -88.5 -259.5t-245.5 -88.5h-336q-157 0 -245.5 88.5t-88.5 259.5v737q0 173 88 261t246 88h336q158 0 246 -88t88 -261v-737zM907 301v829q0 68 -49.5 120.5t-136.5 52.5h-336q-88 0 -137 -52.5t-49 -120.5v-829q0 -68 49 -120t137 -52h336 q89 0 137.5 52t48.5 120zM793 809q0 -90 -50.5 -138t-142.5 -48h-121v-297h-114v786h219q209 0 209 -176v-127zM672 807v129q0 42 -20.5 59t-67.5 17h-105v-287h105q46 0 67 19.5t21 62.5z" />
<glyph unicode="A" d="M829 670q0 -129 -69.5 -195.5t-188.5 -66.5h-36q-119 0 -189 67t-70 195v512q0 128 70 195t189 67h36q119 0 188.5 -66.5t69.5 -195.5v-512zM678 655v541q0 50 -26.5 83.5t-80.5 33.5h-36q-54 0 -80.5 -33.5t-26.5 -83.5v-541q0 -50 26.5 -83t80.5 -33h36q54 0 80.5 33 t26.5 83z" />
<glyph unicode="B" d="M805 420h-490v131h187v745l-203 -79v139l186 78h168v-883h152v-131z" />
<glyph unicode="C" d="M799 420h-492v149l230 314q68 93 85 131t17 114v74q0 101 -125 101h-176v131h162q152 0 220 -58.5t68 -185.5v-47q0 -111 -18 -159.5t-77 -127.5q-10 -13 -15 -20l-211 -285h332v-131z" />
<glyph unicode="D" d="M780 664q0 -128 -60.5 -186t-199.5 -58h-196v131h190q57 0 86 23t29 79v113q0 50 -31 78t-82 28h-145v132h129q49 0 80.5 27.5t31.5 78.5v86q0 59 -26 83t-86 24h-176v131h178q264 0 264 -240v-72q0 -115 -90 -178q104 -55 104 -188v-92z" />
<glyph unicode="E" d="M829 659h-102v-239h-152v239h-301v152l152 623h141l-149 -643h157l15 292h137v-292h102v-132z" />
<glyph unicode="F" d="M786 664q0 -128 -61.5 -186t-198.5 -58h-207v131h201q115 0 115 106v146q0 50 -31.5 79t-81.5 29h-186v523h430v-129h-281v-263h50q117 0 184 -60t67 -183v-135z" />
<glyph unicode="G" d="M823 682q0 -126 -68.5 -194t-172.5 -68h-60q-104 0 -172.5 68t-68.5 194v479q0 132 70 202.5t202 70.5h199v-131h-203q-57 0 -88 -30t-31 -77v-131h131q131 0 196.5 -61t65.5 -191v-131zM561 934h-131v-266q0 -117 100 -117h43q101 0 101 117v159q0 48 -28.5 77.5 t-84.5 29.5z" />
<glyph unicode="H" d="M786 1268l-241 -848h-152l250 880h-326v134h469v-166z" />
<glyph unicode="I" d="M838 664q0 -126 -70.5 -185t-210.5 -59h-8q-140 0 -210.5 59t-70.5 185v96q0 133 99 188q-80 58 -80 178v68q0 121 70.5 180.5t191.5 59.5h8q119 0 190.5 -59.5t71.5 -180.5v-68q0 -120 -80 -178q99 -55 99 -188v-96zM688 770q0 51 -27.5 80t-78.5 29h-56 q-51 0 -79.5 -29t-28.5 -80v-111q0 -56 24 -83t76 -27h57q59 0 86 26t27 84v111zM569 1305h-45q-50 0 -70 -27t-20 -84v-86q0 -93 94 -100h39q48 0 76.5 25t28.5 75v86q0 60 -23 85.5t-80 25.5z" />
<glyph unicode="J" d="M281 1174q0 126 68.5 194t172.5 68h60q104 0 172.5 -68t68.5 -194v-480q0 -132 -69 -202t-201 -70h-201v131h205q57 0 88 29.5t31 76.5v138h-133q-131 0 -196.5 61t-65.5 191v125zM543 928h133v260q0 51 -24.5 84t-78.5 33h-43q-100 0 -100 -117v-154q0 -48 28.5 -77 t84.5 -29z" />
<glyph unicode="K" d="M793 281l-240 237l-240 -237l-114 114l237 240l-237 239l114 115l240 -237l240 237l114 -115l-237 -239l237 -240z" />
<glyph unicode="L" d="M428 0h-178v1280h-162v154h930v-154h-187v-1065q0 -33 14.5 -47t53.5 -14h31v-154h-103q-71 0 -122.5 49t-51.5 156v1075h-225v-1280z" />
<glyph unicode="M" d="M946 -348h-788v192l344 703l-318 692v195h740v-154h-559l331 -733l-362 -744h612v-151z" />
<glyph unicode="N" d="M553 397q-39 -55 -88.5 -81.5t-128.5 -26.5h-21q-161 0 -224.5 79t-63.5 242v41q0 163 63.5 242.5t224.5 79.5h21q79 0 131 -27t90 -82q39 56 87 82.5t126 26.5h21q161 0 224.5 -79.5t63.5 -242.5v-30q0 -165 -64 -248.5t-224 -83.5h-21q-79 0 -128.5 26.5t-88.5 81.5z M918 578v122q-3 70 -34 99.5t-104 29.5h-14q-63 0 -94.5 -36t-34.5 -97v-118q0 -66 31.5 -106t97.5 -40h14q77 0 107.5 34t30.5 112zM188 684v-123q3 -70 34 -99.5t104 -29.5h14q63 0 94.5 36t34.5 97v119q0 66 -31.5 105.5t-97.5 39.5h-14q-77 0 -107.5 -33.5t-30.5 -111.5 z" />
<glyph unicode="O" d="M463 262v742l-346 -277v209l434 334l436 -334v-209l-348 279v-744h-176z" />
<glyph unicode="P" d="M49 842h735l-276 350h215l334 -434l-334 -436h-215l278 352h-737v168z" />
<glyph unicode="Q" d="M852 332l-522 524l-51 -442l-150 149l72 543l544 72l150 -150l-444 -49l524 -524z" />
<glyph unicode="R" d="M129 463l524 522l-442 51l149 150l543 -72l72 -545l-150 -149l-49 444l-524 -524z" />
<glyph unicode="S" d="M655 532h-204v205h204v-205z" />
<glyph unicode="T" d="M655 532h-204v205h204v-205z" />
<glyph unicode="U" d="M995 324q0 -176 -81 -250t-267 -74h-422v666h-116v153h116v615h398q185 0 278.5 -74.5t93.5 -245.5v-790zM817 303v830q0 67 -41 107t-108 40h-265v-461h238v-153h-238v-512h263q78 0 114.5 35.5t36.5 113.5z" />
<glyph unicode="V" d="M963 0h-635v702l-185 -88v164l185 88v568h178v-482l231 113v-164l-231 -113v-632h457v-156z" />
<glyph unicode="W" d="M922 614q0 -323 -349 -323h-213v-291h-178v1434h178v-267h209q353 0 353 -319v-234zM743 594v272q0 77 -36 112.5t-113 35.5h-234v-570h234q78 0 113.5 36t35.5 114z" />
<glyph unicode="X" d="M258 1731h199l123 -138l122 138h197l-229 -236h-181zM899 348q0 -173 -95 -260.5t-274 -87.5h-290v156h311q75 0 122.5 45t47.5 108v213q0 62 -32 99.5t-95 37.5h-62q-152 0 -239.5 89t-87.5 260v77q0 173 94.5 261t273.5 88h293v-156h-313q-75 0 -122.5 -45.5 t-47.5 -108.5v-155q0 -63 40.5 -105.5t106.5 -42.5h62q146 0 226.5 -84t80.5 -254v-135z" />
<glyph unicode="Y" d="M551 1487h-170l213 235h227zM1020 1434l-379 -768v-666h-184v666l-373 768h197l276 -580l277 580h186z" />
<glyph unicode="Z" d="M266 1731h199l123 -138l123 138h196l-229 -236h-180zM926 1253l-559 -1101h538v-152h-725v180l561 1102h-514v152h699v-181z" />
<glyph unicode="[" d="M655 532h-204v205h204v-205z" />
<glyph unicode="\" d="M655 532h-204v205h204v-205z" />
<glyph unicode="]" d="M655 532h-204v205h204v-205z" />
<glyph unicode="^" d="M655 532h-204v205h204v-205z" />
<glyph unicode="_" d="M655 532h-204v205h204v-205z" />
<glyph unicode="`" d="M707 481h-308v318h308v-318z" />
<glyph unicode="a" d="M829 250q0 -129 -69.5 -195.5t-188.5 -66.5h-36q-119 0 -189 67t-70 195v512q0 128 70 195t189 67h36q119 0 188.5 -66.5t69.5 -195.5v-512zM678 236v540q0 50 -26.5 83.5t-80.5 33.5h-36q-54 0 -80.5 -33.5t-26.5 -83.5v-540q0 -50 26.5 -83.5t80.5 -33.5h36 q54 0 80.5 33.5t26.5 83.5z" />
<glyph unicode="b" d="M805 0h-490v131h187v746l-203 -80v139l186 78h168v-883h152v-131z" />
<glyph unicode="c" d="M799 0h-492v150l230 313q68 93 85 131.5t17 114.5v73q0 101 -125 101h-176v131h162q152 0 220 -58.5t68 -185.5v-47q0 -111 -18 -159.5t-77 -127.5q-10 -13 -15 -20l-211 -285h332v-131z" />
<glyph unicode="d" d="M780 244q0 -128 -60.5 -186t-199.5 -58h-196v131h190q57 0 86 23t29 79v113q0 50 -31 78.5t-82 28.5h-145v131h129q49 0 80.5 27.5t31.5 78.5v86q0 59 -26 83t-86 24h-176v131h178q264 0 264 -240v-72q0 -115 -90 -178q104 -55 104 -188v-92z" />
<glyph unicode="e" d="M829 240h-102v-240h-152v240h-301v151l152 623h141l-149 -643h157l15 293h137v-293h102v-131z" />
<glyph unicode="f" d="M786 244q0 -128 -61.5 -186t-198.5 -58h-207v131h201q115 0 115 107v145q0 50 -31.5 79.5t-81.5 29.5h-186v522h430v-129h-281v-262h50q117 0 184 -60.5t67 -183.5v-135z" />
<glyph unicode="g" d="M823 262q0 -126 -68.5 -194t-172.5 -68h-60q-104 0 -172.5 68t-68.5 194v479q0 132 70 202.5t202 70.5h199v-131h-203q-57 0 -88 -30t-31 -77v-131h131q131 0 196.5 -61t65.5 -191v-131zM561 514h-131v-266q0 -117 100 -117h43q101 0 101 117v160q0 48 -28.5 77t-84.5 29 z" />
<glyph unicode="h" d="M786 848l-241 -848h-152l250 881h-326v133h469v-166z" />
<glyph unicode="i" d="M838 244q0 -126 -70.5 -185t-210.5 -59h-8q-140 0 -210.5 59t-70.5 185v96q0 133 99 188q-80 58 -80 179v67q0 121 70.5 180.5t191.5 59.5h8q119 0 190.5 -59.5t71.5 -180.5v-67q0 -121 -80 -179q99 -55 99 -188v-96zM688 350q0 51 -27.5 80t-78.5 29h-56 q-51 0 -79.5 -29t-28.5 -80v-110q0 -111 100 -111h57q59 0 86 26.5t27 84.5v110zM569 885h-45q-50 0 -70 -27t-20 -84v-86q0 -93 94 -100h39q48 0 76.5 25t28.5 75v86q0 60 -23 85.5t-80 25.5z" />
<glyph unicode="j" d="M281 754q0 126 68.5 194t172.5 68h60q104 0 172.5 -68t68.5 -194v-480q0 -132 -69 -202t-201 -70h-201v131h205q57 0 88 30t31 77v137h-133q-131 0 -196.5 61t-65.5 191v125zM543 508h133v260q0 51 -24.5 84t-78.5 33h-43q-100 0 -100 -117v-154q0 -48 28.5 -77t84.5 -29 z" />
<glyph unicode="k" d="M942 563h-778v154h778v-154z" />
<glyph unicode="l" d="M434 0h-174v874h-162v150h910v-150h-185v-659q0 -33 16.5 -47t55.5 -14h31v-154h-103q-71 0 -122.5 49t-51.5 156v669h-215v-874z" />
<glyph unicode="m" d="M193 348v225q0 172 84 250t260 78h200v223q0 63 -47.5 108.5t-122.5 45.5h-276v156h256q178 0 271 -87.5t93 -261.5v-737q0 -167 -92.5 -257.5t-230.5 -90.5h-72q-138 0 -230.5 90.5t-92.5 257.5zM737 748h-221q-74 0 -111.5 -36t-37.5 -100v-303q0 -65 43 -110t116 -45 h52q73 0 116 45t43 110v439z" />
<glyph unicode="n" d="M141 -328h248q33 0 52.5 17.5t19.5 44.5v1720q0 105 59 165t154 60h291v-153h-258q-33 0 -52.5 -17.5t-19.5 -44.5v-1720q0 -105 -59 -165t-154 -60h-281v153z" />
<glyph unicode="o" d="M641 1270v-742l346 277v-209l-434 -334l-436 334v209l348 -279v744h176z" />
<glyph unicode="p" d="M1057 674h-735l276 -350h-215l-334 434l334 436h215l-279 -352h738v-168z" />
<glyph unicode="q" d="M252 1176l522 -525l51 443l150 -150l-72 -543l-545 -71l-149 149l444 49l-524 525z" />
<glyph unicode="r" d="M975 1065l-524 -522l442 -51l-150 -150l-542 72l-72 544l150 150l49 -444l524 524z" />
<glyph unicode="s" d="M655 532h-204v205h204v-205z" />
<glyph unicode="t" d="M655 532h-204v205h204v-205z" />
<glyph unicode="u" d="M621 1274l-68 -115h-168l72 123h-156v152h244l61 102h168l-74 -123q211 -66 211 -328v-737q0 -167 -92.5 -257.5t-230.5 -90.5h-72q-138 0 -230.5 90.5t-92.5 257.5v266q0 172 84 250t260 78h200v182q0 51 -31.5 93t-84.5 57zM737 788h-221q-74 0 -111.5 -36t-37.5 -99 v-344q0 -65 43 -110t116 -45h52q73 0 116 45t43 110v479z" />
<glyph unicode="v" d="M942 0h-303q-71 0 -122.5 49t-51.5 156v463l-189 -54v160l189 55v451h-301v154h475v-555l192 57v-162l-192 -55v-504q0 -33 16.5 -47t55.5 -14h231v-154z" />
<glyph unicode="w" d="M362 -348h-174v1782h174v-451q61 41 154 41h53q180 0 264.5 -77t84.5 -251v-368q0 -173 -85 -250.5t-264 -77.5h-207v-348zM496 870q-68 0 -101 -36t-33 -76v-604h228q75 0 114 35t39 98v450q0 63 -39 98t-114 35h-94z" />
<glyph unicode="x" d="M846 256q0 -256 -307 -256h-306v154h326q113 0 113 92v108q0 92 -88 92h-76q-143 0 -214 62.5t-71 198.5v59q0 138 77.5 198t229.5 60h275v-154h-295q-51 0 -82 -24t-31 -68v-73q0 -46 28.5 -69.5t70.5 -23.5h69q137 0 209 -67t72 -197v-92zM240 1462h198l123 -153 l123 153h197l-230 -276h-180z" />
<glyph unicode="y" d="M283 -195h86q48 0 73 18.5t37 63.5l29 113h-41l-338 1024h190l256 -838l220 838h180l-318 -1135q-21 -79 -47.5 -128t-64 -72t-73 -30t-91.5 -7h-98v153zM575 1188h-176l213 276h213z" />
<glyph unicode="z" d="M881 842l-475 -690h454v-152h-651v164l479 708h-438v152h631v-182zM254 1462h199l122 -153l123 153h197l-229 -276h-181z" />
<glyph unicode="{" d="M895 324l-686 358l686 358v-716z" />
<glyph unicode="|" d="M209 1040l686 -358l-686 -358v716z" />
<glyph unicode="}" d="M53 682l508 270v-192h490v-154h-490v-192z" />
<glyph unicode="~" d="M1051 682l-508 -270v192h-490v154h490v192z" />
<glyph unicode="&#xa0;" />
<glyph unicode="&#xa1;" d="M655 532h-204v205h204v-205z" />
<glyph unicode="&#xa2;" d="M655 532h-204v205h204v-205z" />
<glyph unicode="&#xa3;" d="M655 532h-204v205h204v-205z" />
<glyph unicode="&#xa4;" d="M29 211l145 145q-24 64 -24 160v201q0 97 24 162l-145 147l116 117l140 -139q73 40 213 40h108q134 0 213 -43l142 142l116 -117l-149 -149q26 -62 26 -160v-201q0 -93 -24 -158l147 -147l-116 -117l-138 137q-82 -43 -217 -43h-108q-141 0 -215 43l-138 -137zM780 475 v283q0 63 -39 98t-114 35h-150q-75 0 -114 -35t-39 -98v-283q0 -63 39 -98t114 -35h150q75 0 114 35t39 98z" />
<glyph unicode="&#xa5;" d="M655 532h-204v205h204v-205z" />
<glyph unicode="&#xa6;" d="M655 532h-204v205h204v-205z" />
<glyph unicode="&#xa7;" d="M655 532h-204v205h204v-205z" />
<glyph unicode="&#xa8;" d="M655 532h-204v205h204v-205z" />
<glyph unicode="&#xa9;" d="M655 532h-204v205h204v-205z" />
<glyph unicode="&#xaa;" d="M655 532h-204v205h204v-205z" />
<glyph unicode="&#xab;" d="M655 532h-204v205h204v-205z" />
<glyph unicode="&#xac;" d="M655 532h-204v205h204v-205z" />
<glyph unicode="&#xad;" d="M885 563h-666v154h666v-154z" />
<glyph unicode="&#xae;" d="M655 532h-204v205h204v-205z" />
<glyph unicode="&#xaf;" d="M655 532h-204v205h204v-205z" />
<glyph unicode="&#xb0;" d="M655 532h-204v205h204v-205z" />
<glyph unicode="&#xb1;" d="M655 532h-204v205h204v-205z" />
<glyph unicode="&#xb2;" d="M655 532h-204v205h204v-205z" />
<glyph unicode="&#xb3;" d="M655 532h-204v205h204v-205z" />
<glyph unicode="&#xb4;" d="M655 532h-204v205h204v-205z" />
<glyph unicode="&#xb5;" d="M655 532h-204v205h204v-205z" />
<glyph unicode="&#xb6;" d="M676 0h-170v766h-12q-181 0 -261.5 70t-80.5 243v27q0 173 82 250.5t260 77.5h182v-144h-205q-74 0 -114 -39.5t-40 -103.5v-109q0 -63 39.5 -98t114.5 -35h205v-905zM952 0h-164v1434h164v-1434z" />
<glyph unicode="&#xb7;" d="M655 532h-204v205h204v-205z" />
<glyph unicode="&#xb8;" d="M655 532h-204v205h204v-205z" />
<glyph unicode="&#xb9;" d="M655 532h-204v205h204v-205z" />
<glyph unicode="&#xba;" d="M655 532h-204v205h204v-205z" />
<glyph unicode="&#xbb;" d="M655 532h-204v205h204v-205z" />
<glyph unicode="&#xbc;" d="M655 532h-204v205h204v-205z" />
<glyph unicode="&#xbd;" d="M655 532h-204v205h204v-205z" />
<glyph unicode="&#xbe;" d="M655 532h-204v205h204v-205z" />
<glyph unicode="&#xbf;" d="M655 532h-204v205h204v-205z" />
<glyph unicode="&#xc0;" d="M655 532h-204v205h204v-205z" />
<glyph unicode="&#xc1;" d="M655 532h-204v205h204v-205z" />
<glyph unicode="&#xc2;" d="M655 532h-204v205h204v-205z" />
<glyph unicode="&#xc3;" d="M655 532h-204v205h204v-205z" />
<glyph unicode="&#xc4;" d="M655 532h-204v205h204v-205z" />
<glyph unicode="&#xc5;" d="M655 532h-204v205h204v-205z" />
<glyph unicode="&#xc6;" d="M655 532h-204v205h204v-205z" />
<glyph unicode="&#xc7;" d="M655 532h-204v205h204v-205z" />
<glyph unicode="&#xc8;" d="M655 532h-204v205h204v-205z" />
<glyph unicode="&#xc9;" d="M655 532h-204v205h204v-205z" />
<glyph unicode="&#xca;" d="M655 532h-204v205h204v-205z" />
<glyph unicode="&#xcb;" d="M655 532h-204v205h204v-205z" />
<glyph unicode="&#xcc;" d="M655 532h-204v205h204v-205z" />
<glyph unicode="&#xcd;" d="M655 532h-204v205h204v-205z" />
<glyph unicode="&#xce;" d="M655 532h-204v205h204v-205z" />
<glyph unicode="&#xcf;" d="M655 532h-204v205h204v-205z" />
<glyph unicode="&#xd0;" d="M655 532h-204v205h204v-205z" />
<glyph unicode="&#xd1;" d="M655 532h-204v205h204v-205z" />
<glyph unicode="&#xd2;" d="M655 532h-204v205h204v-205z" />
<glyph unicode="&#xd3;" d="M655 532h-204v205h204v-205z" />
<glyph unicode="&#xd4;" d="M655 532h-204v205h204v-205z" />
<glyph unicode="&#xd5;" d="M655 532h-204v205h204v-205z" />
<glyph unicode="&#xd6;" d="M655 532h-204v205h204v-205z" />
<glyph unicode="&#xd7;" d="M655 532h-204v205h204v-205z" />
<glyph unicode="&#xd8;" d="M655 532h-204v205h204v-205z" />
<glyph unicode="&#xd9;" d="M655 532h-204v205h204v-205z" />
<glyph unicode="&#xda;" d="M655 532h-204v205h204v-205z" />
<glyph unicode="&#xdb;" d="M655 532h-204v205h204v-205z" />
<glyph unicode="&#xdc;" d="M655 532h-204v205h204v-205z" />
<glyph unicode="&#xdd;" d="M655 532h-204v205h204v-205z" />
<glyph unicode="&#xde;" d="M655 532h-204v205h204v-205z" />
<glyph unicode="&#xdf;" d="M655 532h-204v205h204v-205z" />
<glyph unicode="&#xe0;" d="M655 532h-204v205h204v-205z" />
<glyph unicode="&#xe1;" d="M655 532h-204v205h204v-205z" />
<glyph unicode="&#xe2;" d="M655 532h-204v205h204v-205z" />
<glyph unicode="&#xe3;" d="M655 532h-204v205h204v-205z" />
<glyph unicode="&#xe4;" d="M655 532h-204v205h204v-205z" />
<glyph unicode="&#xe5;" d="M655 532h-204v205h204v-205z" />
<glyph unicode="&#xe6;" d="M655 532h-204v205h204v-205z" />
<glyph unicode="&#xe7;" d="M655 532h-204v205h204v-205z" />
<glyph unicode="&#xe8;" d="M655 532h-204v205h204v-205z" />
<glyph unicode="&#xe9;" d="M655 532h-204v205h204v-205z" />
<glyph unicode="&#xea;" d="M655 532h-204v205h204v-205z" />
<glyph unicode="&#xeb;" d="M655 532h-204v205h204v-205z" />
<glyph unicode="&#xec;" d="M655 532h-204v205h204v-205z" />
<glyph unicode="&#xed;" d="M655 532h-204v205h204v-205z" />
<glyph unicode="&#xee;" d="M655 532h-204v205h204v-205z" />
<glyph unicode="&#xef;" d="M655 532h-204v205h204v-205z" />
<glyph unicode="&#xf0;" d="M655 532h-204v205h204v-205z" />
<glyph unicode="&#xf1;" d="M655 532h-204v205h204v-205z" />
<glyph unicode="&#xf2;" d="M655 532h-204v205h204v-205z" />
<glyph unicode="&#xf3;" d="M655 532h-204v205h204v-205z" />
<glyph unicode="&#xf4;" d="M655 532h-204v205h204v-205z" />
<glyph unicode="&#xf5;" d="M655 532h-204v205h204v-205z" />
<glyph unicode="&#xf6;" d="M655 532h-204v205h204v-205z" />
<glyph unicode="&#xf7;" d="M655 532h-204v205h204v-205z" />
<glyph unicode="&#xf8;" d="M655 532h-204v205h204v-205z" />
<glyph unicode="&#xf9;" d="M655 532h-204v205h204v-205z" />
<glyph unicode="&#xfa;" d="M655 532h-204v205h204v-205z" />
<glyph unicode="&#xfb;" d="M655 532h-204v205h204v-205z" />
<glyph unicode="&#xfc;" d="M655 532h-204v205h204v-205z" />
<glyph unicode="&#xfd;" d="M655 532h-204v205h204v-205z" />
<glyph unicode="&#xfe;" d="M655 532h-204v205h204v-205z" />
<glyph unicode="&#xff;" d="M655 532h-204v205h204v-205z" />
<glyph unicode="&#x152;" d="M655 532h-204v205h204v-205z" />
<glyph unicode="&#x153;" d="M655 532h-204v205h204v-205z" />
<glyph unicode="&#x178;" d="M655 532h-204v205h204v-205z" />
<glyph unicode="&#x2c6;" d="M655 532h-204v205h204v-205z" />
<glyph unicode="&#x2dc;" d="M655 532h-204v205h204v-205z" />
<glyph unicode="&#x2000;" horiz-adv-x="865" />
<glyph unicode="&#x2001;" horiz-adv-x="1731" />
<glyph unicode="&#x2002;" horiz-adv-x="865" />
<glyph unicode="&#x2003;" horiz-adv-x="1731" />
<glyph unicode="&#x2004;" horiz-adv-x="577" />
<glyph unicode="&#x2005;" horiz-adv-x="432" />
<glyph unicode="&#x2006;" horiz-adv-x="288" />
<glyph unicode="&#x2007;" horiz-adv-x="288" />
<glyph unicode="&#x2008;" horiz-adv-x="216" />
<glyph unicode="&#x2009;" horiz-adv-x="346" />
<glyph unicode="&#x200a;" horiz-adv-x="96" />
<glyph unicode="&#x2010;" d="M885 563h-666v154h666v-154z" />
<glyph unicode="&#x2011;" d="M885 563h-666v154h666v-154z" />
<glyph unicode="&#x2012;" d="M885 563h-666v154h666v-154z" />
<glyph unicode="&#x2013;" d="M655 532h-204v205h204v-205z" />
<glyph unicode="&#x2014;" d="M655 532h-204v205h204v-205z" />
<glyph unicode="&#x2018;" d="M655 532h-204v205h204v-205z" />
<glyph unicode="&#x2019;" d="M655 532h-204v205h204v-205z" />
<glyph unicode="&#x201a;" d="M655 532h-204v205h204v-205z" />
<glyph unicode="&#x201c;" d="M655 532h-204v205h204v-205z" />
<glyph unicode="&#x201d;" d="M655 532h-204v205h204v-205z" />
<glyph unicode="&#x201e;" d="M655 532h-204v205h204v-205z" />
<glyph unicode="&#x2022;" d="M655 532h-204v205h204v-205z" />
<glyph unicode="&#x2026;" d="M655 532h-204v205h204v-205z" />
<glyph unicode="&#x202f;" horiz-adv-x="346" />
<glyph unicode="&#x2039;" d="M655 532h-204v205h204v-205z" />
<glyph unicode="&#x203a;" d="M655 532h-204v205h204v-205z" />
<glyph unicode="&#x205f;" horiz-adv-x="432" />
<glyph unicode="&#x20ac;" d="M655 532h-204v205h204v-205z" />
<glyph unicode="&#x2122;" d="M655 532h-204v205h204v-205z" />
<glyph unicode="&#x25fc;" horiz-adv-x="1464" d="M0 1464h1464v-1464h-1464v1464z" />
<glyph unicode="&#xfb01;" d="M655 532h-204v205h204v-205z" />
<glyph unicode="&#xfb02;" d="M655 532h-204v205h204v-205z" />
</font>
</defs>
</svg>
