<?xml version="1.0" standalone="no"?>
<!DOCTYPE svg PUBLIC "-//W3C//DTD SVG 1.1//EN" "http://www.w3.org/Graphics/SVG/1.1/DTD/svg11.dtd" >
<svg xmlns="http://www.w3.org/2000/svg" xmlns:xlink="http://www.w3.org/1999/xlink" version="1.1">
<metadata></metadata>
<defs>
<font id="share-techmonoregular" horiz-adv-x="1105" >
<font-face units-per-em="2048" ascent="1655" descent="-393" />
<missing-glyph horiz-adv-x="500" />
<glyph unicode="&#xfb01;" d="M655 532h-204v205h204v-205z" />
<glyph unicode="&#xfb02;" d="M655 532h-204v205h204v-205z" />
<glyph horiz-adv-x="0" />
<glyph horiz-adv-x="0" />
<glyph horiz-adv-x="682" />
<glyph unicode="&#xd;" />
<glyph unicode=" " />
<glyph unicode="!" d="M655 0h-204v205h204v-205zM639 426h-174v1008h174v-1008z" />
<glyph unicode="&#x22;" d="M492 1249l-41 -321h-113l-41 321v185h195v-185zM809 1249l-41 -321h-113l-41 321v185h195v-185z" />
<glyph unicode="#" d="M635 522v410h-164v-410h164zM942 369h-143v-369h-164v369h-164v-369h-164v369h-143v153h143v410h-143v153h143v349h164v-349h164v349h164v-349h143v-153h-143v-410h143v-153z" />
<glyph unicode="$" d="M639 -225h-174v225h-215v156h291q75 0 122.5 45t47.5 108v172q0 62 -32 99.5t-95 37.5h-41q-152 0 -240 89t-88 260v57q0 282 250 336v237h174v-225h217v-155h-293q-75 0 -122.5 -45.5t-47.5 -108.5v-135q0 -63 41 -105.5t107 -42.5h41q146 0 226.5 -84t80.5 -254v-94 q0 -141 -64.5 -226t-185.5 -112v-235z" />
<glyph unicode="%" d="M1079 725l-1054 -150v127l1054 150v-127zM592 1090q0 -129 -66 -196t-184 -67h-16q-118 0 -184 67t-66 196v81q0 129 66 196t184 67h16q118 0 184 -67t66 -196v-81zM449 1067v127q0 50 -26.5 83.5t-80.5 33.5h-16q-54 0 -80.5 -33.5t-26.5 -83.5v-127q0 -50 26.5 -83.5 t80.5 -33.5h16q54 0 80.5 33.5t26.5 83.5zM1022 262q0 -129 -66 -195.5t-184 -66.5h-16q-118 0 -184 66.5t-66 195.5v82q0 129 66 195.5t184 66.5h16q118 0 184 -66.5t66 -195.5v-82zM879 240v127q0 50 -26.5 83t-80.5 33h-16q-54 0 -80.5 -33t-26.5 -83v-127 q0 -50 26.5 -83.5t80.5 -33.5h16q54 0 80.5 33.5t26.5 83.5z" />
<glyph unicode="&#x26;" d="M854 0h-336q-184 0 -266 77t-82 247v258q0 179 133 252q-113 79 -113 237v43q0 320 353 320h217v-154h-242q-77 0 -113 -35t-36 -112v-82q0 -67 43 -108.5t106 -41.5h498v-153h-162v-748zM498 748q-67 0 -108.5 -40.5t-41.5 -107.5v-297q0 -78 37 -113.5t115 -35.5h188 v594h-190z" />
<glyph unicode="'" d="M649 1249l-41 -321h-112l-41 321v185h194v-185z" />
<glyph unicode="(" d="M348 1034q0 125 17.5 227t51.5 178.5t71.5 131.5t89.5 108h180q-74 -90 -113 -147.5t-70.5 -132t-42 -157t-10.5 -204.5v-643q0 -122 10.5 -204.5t42 -157t70.5 -132t113 -147.5h-180q-52 53 -89.5 108t-71.5 131.5t-51.5 178.5t-17.5 227v635z" />
<glyph unicode=")" d="M758 1034v-635q0 -125 -17.5 -227t-51.5 -178.5t-71.5 -131.5t-89.5 -108h-180q74 90 113 147.5t70.5 132t42 157t10.5 204.5v643q0 122 -10.5 204.5t-42 157t-70.5 132t-113 147.5h180q52 -53 89.5 -108t71.5 -131.5t51.5 -178.5t17.5 -227z" />
<glyph unicode="*" d="M963 1118l-301 -63l217 -252l-148 -107l-180 291l-186 -291l-144 109l219 250l-297 65l56 164l288 -117l-26 312h184l-27 -312l293 113z" />
<glyph unicode="+" d="M942 563h-307v-321h-164v321h-309v154h309v323h164v-323h307v-154z" />
<glyph unicode="," d="M696 0l-127 -287h-159l82 287v205h204v-205z" />
<glyph unicode="-" d="M885 563h-666v154h666v-154z" />
<glyph unicode="." d="M655 0h-204v205h204v-205z" />
<glyph unicode="/" d="M1004 1659l-730 -1884h-172l729 1884h173z" />
<glyph unicode="0" d="M918 348q0 -170 -93 -259t-252 -89h-41q-159 0 -251.5 89t-92.5 259v737q0 172 92.5 260.5t251.5 88.5h41q159 0 252 -88.5t93 -260.5v-737zM362 1124v-555l381 555q0 64 -48 110t-122 46h-41q-74 0 -122 -46t-48 -110zM743 309v553l-381 -553q0 -63 48 -109t122 -46h41 q74 0 122 46t48 109z" />
<glyph unicode="1" d="M895 0h-666v154h269v1118l-289 -107v166l268 103h195v-1280h223v-154z" />
<glyph unicode="2" d="M891 0h-676v180l328 467q91 128 110 176t19 158v143q0 63 -47.5 108.5t-122.5 45.5h-246v156h225q179 0 274 -88t95 -261v-86q0 -78 -6.5 -130.5t-28 -103t-41.5 -82t-67 -99.5l-304 -428h488v-156z" />
<glyph unicode="3" d="M858 324q0 -170 -82 -247t-266 -77h-262v154h280q78 0 115 35.5t37 113.5v211q0 67 -41.5 107.5t-108.5 40.5h-219v153h199q63 0 106 41.5t43 108.5v168q0 77 -36 112t-113 35h-262v154h237q353 0 353 -320v-129q0 -158 -113 -237q133 -73 133 -252v-172z" />
<glyph unicode="4" d="M928 319h-154v-319h-174v319h-422v177l219 938h166l-209 -965h246v467h174v-467h154v-150z" />
<glyph unicode="5" d="M860 324q0 -170 -82 -247t-266 -77h-268v154h286q78 0 115 35.5t37 113.5v260q0 67 -41.5 107.5t-108.5 40.5h-268v723h565v-154h-391v-416h84q157 0 247.5 -78t90.5 -241v-221z" />
<glyph unicode="6" d="M918 348q0 -167 -92.5 -257.5t-231.5 -90.5h-72q-138 0 -230.5 90.5t-92.5 257.5v737q0 174 93 261.5t271 87.5h256v-156h-276q-75 0 -122.5 -45.5t-47.5 -108.5v-223h200q176 0 260.5 -78t84.5 -250v-225zM594 748h-221v-439q0 -65 43 -110t116 -45h52q73 0 116 45 t43 110v303q0 64 -37.5 100t-111.5 36z" />
<glyph unicode="7" d="M879 1235l-361 -1235h-182l373 1280h-496v154h666v-199z" />
<glyph unicode="8" d="M930 324q0 -170 -82 -247t-266 -77h-58q-184 0 -266 77t-82 247v172q0 179 133 252q-108 76 -108 237v129q0 320 331 320h41q159 0 245.5 -78t86.5 -242v-129q0 -161 -108 -237q133 -73 133 -252v-172zM752 514q0 67 -41.5 107.5t-108.5 40.5h-98q-67 0 -108.5 -40.5 t-41.5 -107.5v-211q0 -76 32.5 -112.5t102.5 -36.5h111q78 0 115 35.5t37 113.5v211zM582 1280h-74q-69 -3 -99 -38t-30 -109v-168q0 -65 37.5 -106t95.5 -44h70q63 0 104 41t41 109v168q0 78 -34 112.5t-111 34.5z" />
<glyph unicode="9" d="M197 1085q0 167 92.5 258t230.5 91h72q138 0 230.5 -91t92.5 -258v-737q0 -173 -93 -260.5t-271 -87.5h-236v156h256q75 0 122.5 45t47.5 108v223h-200q-176 0 -260 78t-84 250v225zM520 686h221v438q0 65 -43 110.5t-116 45.5h-52q-73 0 -116 -45.5t-43 -110.5v-303 q0 -63 37.5 -99t111.5 -36z" />
<glyph unicode=":" d="M655 0h-204v205h204v-205zM655 819h-204v205h204v-205z" />
<glyph unicode=";" d="M696 0l-127 -287h-159l82 287v205h204v-205zM696 819h-204v205h204v-205z" />
<glyph unicode="&#x3c;" d="M942 215l-778 358v215l778 367v-188l-635 -279l635 -280v-193z" />
<glyph unicode="=" d="M942 358h-778v154h778v-154zM942 768h-778v154h778v-154z" />
<glyph unicode="&#x3e;" d="M942 573l-778 -358v193l647 280l-647 279v188l778 -367v-215z" />
<glyph unicode="?" d="M838 1061q0 -86 -8 -126.5t-37 -84t-101 -117.5l-108 -110v-197h-174v248l118 125q94 98 115 136.5t21 106.5v103q0 63 -37.5 98t-112.5 35h-256v156h236q344 0 344 -308v-65zM600 0h-205v205h205v-205z" />
<glyph unicode="@" d="M719 0h-379q-145 0 -213 67t-68 220v839q0 161 76.5 234.5t251.5 73.5h338q173 0 247.5 -71t74.5 -237v-669q0 -123 -50.5 -172t-154.5 -49q-68 0 -112 31t-50 91q-31 -34 -67.5 -48.5t-98.5 -14.5q-104 0 -151.5 52.5t-47.5 182.5v295q0 162 69.5 220.5t246.5 58.5h147 v-672q0 -43 13.5 -63.5t48.5 -20.5q38 0 50.5 18.5t12.5 75.5v705q0 78 -37 118t-121 40h-378q-88 0 -126 -39t-38 -119v-881q0 -137 137 -137h379v-129zM532 414q54 0 80.5 32t26.5 74v467h-31q-89 0 -121 -29.5t-32 -119.5v-320q0 -50 14.5 -77t62.5 -27z" />
<glyph unicode="A" d="M721 516l-168 782l-166 -782h334zM1014 0h-183l-77 362h-400l-80 -362h-182l346 1434h236z" />
<glyph unicode="B" d="M932 324q0 -176 -81 -250t-267 -74h-410v1434h385q182 0 267 -73.5t85 -246.5v-117q0 -159 -112 -237q133 -73 133 -252v-184zM733 977v156q0 77 -36 112t-113 35h-232v-453h232q63 0 106 41.5t43 108.5zM754 303v223q0 67 -41.5 107.5t-108.5 40.5h-252v-520h250 q78 0 115 35.5t37 113.5z" />
<glyph unicode="C" d="M883 0h-291q-179 0 -274 87.5t-95 260.5v737q0 173 95 261t274 88h291v-156h-312q-75 0 -122.5 -45.5t-47.5 -108.5v-815q0 -63 47.5 -108t122.5 -45h312v-156z" />
<glyph unicode="D" d="M938 324q0 -176 -81 -250t-267 -74h-422v1434h397q185 0 279 -74.5t94 -245.5v-790zM760 303v830q0 67 -41.5 107t-108.5 40h-264v-1126h262q78 0 115 35.5t37 113.5z" />
<glyph unicode="E" d="M895 0h-684v1434h684v-150h-506v-469h455v-149h-455v-516h506v-150z" />
<glyph unicode="F" d="M901 1284h-506v-489h455v-150h-455v-645h-178v1434h684v-150z" />
<glyph unicode="G" d="M911 0h-350q-179 0 -273.5 87.5t-94.5 260.5v737q0 173 94.5 261t273.5 88h289v-156h-309q-75 0 -122.5 -45.5t-47.5 -108.5v-815q0 -63 47.5 -108t122.5 -45h200v444h-178v154h348v-754z" />
<glyph unicode="H" d="M942 0h-178v659h-422v-659h-178v1434h178v-623h422v623h178v-1434z" />
<glyph unicode="I" d="M825 0h-546v150h184v1134h-184v150h546v-150h-184v-1134h184v-150z" />
<glyph unicode="J" d="M840 348q0 -173 -95 -260.5t-274 -87.5h-215v156h236q75 0 122.5 45t47.5 108v971h-330v154h508v-1086z" />
<glyph unicode="K" d="M952 0h-204l-326 645l-78 -117v-528h-178v1434h178v-619l389 619h195l-396 -633z" />
<glyph unicode="L" d="M870 0h-634v1434h178v-1278h456v-156z" />
<glyph unicode="M" d="M999 0h-159v1286l-205 -805h-170l-201 805v-1286h-155v1434h284l164 -734l166 734h276v-1434z" />
<glyph unicode="N" d="M942 0h-293l-321 1282v-1282h-166v1434h291l323 -1282v1282h166v-1434z" />
<glyph unicode="O" d="M963 348q0 -173 -95 -260.5t-274 -87.5h-82q-179 0 -274 87.5t-95 260.5v737q0 173 95 261t274 88h82q179 0 274 -88t95 -261v-737zM784 309v815q0 63 -47.5 108.5t-122.5 45.5h-122q-75 0 -122.5 -45.5t-47.5 -108.5v-815q0 -63 47.5 -108t122.5 -45h122q75 0 122.5 45 t47.5 108z" />
<glyph unicode="P" d="M924 881q0 -324 -349 -324h-213v-557h-178v1434h387q353 0 353 -320v-233zM745 860v273q0 77 -36 112t-113 35h-234v-569h234q78 0 113.5 35.5t35.5 113.5z" />
<glyph unicode="Q" d="M1065 -4l-117 -117l-157 158q-78 -37 -197 -37h-82q-179 0 -274 87.5t-95 260.5v737q0 173 95 261t274 88h82q179 0 274 -88t95 -261v-737q0 -121 -48 -203zM784 309v815q0 63 -47.5 108.5t-122.5 45.5h-122q-75 0 -122.5 -45.5t-47.5 -108.5v-815q0 -63 47.5 -108 t122.5 -45h122q75 0 122.5 45t47.5 108z" />
<glyph unicode="R" d="M981 0h-195l-264 594h-200v-594h-179v1434h385q353 0 353 -320v-196q0 -230 -185 -289zM702 897v236q0 77 -36 112t-113 35h-231v-532h231q78 0 113.5 35.5t35.5 113.5z" />
<glyph unicode="S" d="M899 348q0 -173 -95 -260.5t-274 -87.5h-290v156h311q75 0 122.5 45t47.5 108v213q0 62 -32 99.5t-95 37.5h-62q-152 0 -239.5 89t-87.5 260v77q0 173 94.5 261t273.5 88h293v-156h-313q-75 0 -122.5 -45.5t-47.5 -108.5v-155q0 -63 40.5 -105.5t106.5 -42.5h62 q146 0 226.5 -84t80.5 -254v-135z" />
<glyph unicode="T" d="M967 1278h-326v-1278h-178v1278h-326v156h830v-156z" />
<glyph unicode="U" d="M946 348q0 -173 -94.5 -260.5t-273.5 -87.5h-52q-179 0 -273.5 87.5t-94.5 260.5v1086h178v-1125q0 -63 47.5 -108t122.5 -45h92q75 0 122.5 45t47.5 108v1125h178v-1086z" />
<glyph unicode="V" d="M981 1434l-322 -1434h-243l-301 1434h180l246 -1254l264 1254h176z" />
<glyph unicode="W" d="M993 1434l-69 -1434h-258l-117 582l-129 -582h-246l-70 1434h152l61 -1280l170 675h127l174 -675l64 1280h141z" />
<glyph unicode="X" d="M1001 0h-200l-246 539l-258 -539h-193l357 741l-324 693h195l225 -486l234 486h190l-332 -691z" />
<glyph unicode="Y" d="M1014 1434l-373 -768v-666h-184v666l-367 768h197l270 -596l270 596h187z" />
<glyph unicode="Z" d="M924 1253l-559 -1101h538v-152h-725v180l561 1102h-514v152h699v-181z" />
<glyph unicode="[" d="M768 -246h-430v1925h430v-153h-266v-1618h266v-154z" />
<glyph unicode="\" d="M831 -225l-729 1884h172l730 -1884h-173z" />
<glyph unicode="]" d="M768 -246h-430v154h266v1618h-266v153h430v-1925z" />
<glyph unicode="^" d="M958 860h-186l-213 574l-233 -574h-181l295 696h234z" />
<glyph unicode="_" d="M1069 -348h-1032v153h1032v-153z" />
<glyph unicode="`" d="M760 1188h-176l-250 276h213z" />
<glyph unicode="a" d="M967 0h-113q-28 0 -59 16.5t-54 44.5q-48 -61 -125 -61h-182q-157 0 -227 62.5t-70 213.5v41q0 318 299 318h254v102q0 63 -39 98t-114 35h-318v154h297q179 0 263.5 -77.5t84.5 -250.5v-491q0 -32 23.5 -47t79.5 -15v-143zM596 154q27 0 46 7t28 16.5t14 25.5t5.5 26 t0.5 27v225h-256q-54 0 -88.5 -34.5t-34.5 -88.5v-102q0 -54 24.5 -78t78.5 -24h182z" />
<glyph unicode="b" d="M928 328q0 -173 -84.5 -250.5t-263.5 -77.5h-402v1434h174v-451q61 41 154 41h74q180 0 264 -77t84 -251v-368zM485 870q-68 0 -100.5 -36t-32.5 -76v-604h248q75 0 114.5 35t39.5 98v450q0 63 -39.5 98t-114.5 35h-115z" />
<glyph unicode="c" d="M858 0h-264q-180 0 -264 77t-84 251v368q0 173 84.5 250.5t263.5 77.5h264v-154h-285q-75 0 -114 -35t-39 -98v-450q0 -63 39 -98t114 -35h285v-154z" />
<glyph unicode="d" d="M932 0h-164v47q-67 -47 -164 -47h-84q-180 0 -264 77t-84 251v368q0 173 84.5 250.5t263.5 77.5h238v410h174v-1434zM625 154q68 0 100.5 36t32.5 76v604h-258q-75 0 -114.5 -35t-39.5 -98v-450q0 -63 39.5 -98t114.5 -35h125z" />
<glyph unicode="e" d="M846 0h-305q-180 0 -264 77t-84 251v368q0 175 75.5 251.5t251.5 76.5h96q147 0 221 -81t74 -236v-267h-544v-153q0 -63 39 -98t114 -35h326v-154zM367 737v-143h374v154q0 54 -34.5 88t-88.5 34h-118q-73 0 -103 -33.5t-30 -99.5z" />
<glyph unicode="f" d="M901 1280h-278q-33 0 -52.5 -17t-19.5 -44v-195h330v-154h-330v-716h248v-154h-596v154h174v716h-174v154h174v184q0 105 59.5 165.5t153.5 60.5h311v-154z" />
<glyph unicode="g" d="M956 -72q0 -139 -83 -207.5t-259 -68.5h-426v153h447q72 0 109.5 29.5t37.5 73.5v65q0 48 -36.5 75.5t-110.5 27.5h-354v282q-134 73 -134 287v51q0 173 85 250.5t264 77.5h430v-379q0 -153 -84 -240.5t-224 -87.5h-163v-88h159q176 0 259 -68.5t83 -207.5v-25zM618 471 q34 0 60.5 13.5t41.5 34.5t22.5 41t9.5 38v272h-277q-75 0 -114 -35t-39 -98v-133q0 -63 39 -98t114 -35h143z" />
<glyph unicode="h" d="M352 0h-174v1434h174v-451q61 41 154 41h94q165 0 246.5 -77.5t81.5 -250.5v-696h-174v737q0 61 -36 97t-97 36h-136q-66 0 -98.5 -33.5t-34.5 -72.5v-764z" />
<glyph unicode="i" d="M649 1249h-194v185h194v-185zM942 0h-477v870h-301v154h475v-870h303v-154z" />
<glyph unicode="j" d="M281 -195h288q33 0 52.5 17.5t19.5 44.5v1003h-301v154h475v-1147q0 -105 -59 -165t-154 -60h-321v153zM823 1249h-194v185h194v-185z" />
<glyph unicode="k" d="M940 0h-215l-301 500l-53 -62v-438h-174v1434h174v-775l321 365h219l-356 -403z" />
<glyph unicode="l" d="M963 0h-345q-71 0 -122.5 49t-51.5 156v1075h-301v154h475v-1219q0 -33 16.5 -47t55.5 -14h273v-154z" />
<glyph unicode="m" d="M252 0h-164v1024h154v-47q53 47 127 47h12q143 0 203 -82q68 82 178 82h12q126 0 185 -64t59 -225v-735h-164v737q0 84 -17.5 117t-78.5 33h-13q-32 0 -55 -14t-34 -36.5t-15.5 -42.5t-5.5 -42v-752h-164v737q0 87 -20 118.5t-74 31.5h-12q-43 0 -69.5 -21t-34.5 -44.5 t-9 -51.5v-770z" />
<glyph unicode="n" d="M352 0h-174v1024h164v-49q63 49 164 49h94q165 0 246.5 -77.5t81.5 -250.5v-696h-174v737q0 61 -36 97t-97 36h-136q-68 0 -100.5 -36t-32.5 -76v-758z" />
<glyph unicode="o" d="M934 328q0 -173 -84.5 -250.5t-263.5 -77.5h-68q-179 0 -263.5 77.5t-84.5 250.5v368q0 173 84.5 250.5t263.5 77.5h68q179 0 263.5 -77.5t84.5 -250.5v-368zM760 287v450q0 63 -39.5 98t-114.5 35h-108q-75 0 -114.5 -35t-39.5 -98v-450q0 -63 39.5 -98t114.5 -35h108 q75 0 114.5 35t39.5 98z" />
<glyph unicode="p" d="M352 -348h-174v1372h164v-49q63 49 164 49h74q180 0 264 -77t84 -251v-368q0 -173 -84.5 -250.5t-263.5 -77.5h-228v-348zM485 870q-68 0 -100.5 -36t-32.5 -76v-604h248q75 0 114.5 35t39.5 98v450q0 63 -39.5 98t-114.5 35h-115z" />
<glyph unicode="q" d="M932 -348h-174v389q-64 -41 -154 -41h-84q-180 0 -264 77t-84 251v368q0 173 84.5 250.5t263.5 77.5h412v-1372zM625 154q68 0 100.5 36t32.5 76v604h-258q-75 0 -114.5 -35t-39.5 -98v-450q0 -63 39.5 -98t114.5 -35h125z" />
<glyph unicode="r" d="M752 0h-547v154h149v716h-149v154h313v-55q67 55 164 55h211v-164h-231q-65 0 -98.5 -42t-35.5 -85v-579h224v-154z" />
<glyph unicode="s" d="M864 256q0 -256 -307 -256h-305v154h326q112 0 112 92v108q0 92 -88 92h-76q-143 0 -213.5 62.5t-70.5 198.5v59q0 138 77.5 198t229.5 60h274v-154h-295q-51 0 -81.5 -23.5t-30.5 -68.5v-73q0 -47 28 -70t70 -23h70q137 0 208.5 -67t71.5 -197v-92z" />
<glyph unicode="t" d="M887 0h-258q-104 0 -159.5 67.5t-55.5 178.5v624h-195v154h195v246h174v-246h299v-154h-299v-634q0 -45 22.5 -63.5t69.5 -18.5h207v-154z" />
<glyph unicode="u" d="M915 0h-163v47q-67 -47 -164 -47h-70q-165 0 -246.5 77.5t-81.5 250.5v696h175v-737q0 -61 35.5 -97t97.5 -36h110q65 0 97 33t36 73v764h174v-1024z" />
<glyph unicode="v" d="M975 1024l-295 -1024h-252l-297 1024h188l240 -883l234 883h182z" />
<glyph unicode="w" d="M1034 1024l-182 -1024h-197l-98 514l-111 -514h-190l-184 1024h174l116 -813l136 629h133l123 -629l116 813h164z" />
<glyph unicode="x" d="M971 0h-205l-215 387l-225 -387h-193l320 528l-295 496h202l195 -344l199 344h190l-299 -487z" />
<glyph unicode="y" d="M283 -195h86q48 0 73 18.5t37 63.5l29 113h-41l-338 1024h188l256 -858l224 858h178l-318 -1135q-21 -79 -47.5 -128t-64 -72t-73 -30t-91.5 -7h-98v153z" />
<glyph unicode="z" d="M889 842l-475 -690h454v-152h-651v164l479 708h-438v152h631v-182z" />
<glyph unicode="{" d="M301 604v225q82 0 113.5 26t31.5 106v469q0 136 51 192.5t173 56.5h133v-143h-105q-50 0 -71 -16t-21 -60v-499q0 -103 -50.5 -169t-123.5 -77q73 -8 123.5 -73.5t50.5 -168.5v-500q0 -44 21 -59.5t71 -15.5h105v-144h-133q-122 0 -173 57t-51 193v469q0 80 -31.5 105.5 t-113.5 25.5z" />
<glyph unicode="|" d="M635 -225h-164v1884h164v-1884z" />
<glyph unicode="}" d="M803 829v-225q-82 0 -114 -25.5t-32 -105.5v-469q0 -136 -50.5 -193t-172.5 -57h-133v144h105q50 0 71 15.5t21 59.5v500q0 103 50.5 168.5t123.5 73.5q-73 11 -123.5 77t-50.5 169v499q0 44 -21 60t-71 16h-105v143h133q122 0 172.5 -56.5t50.5 -192.5v-469 q0 -80 32 -106t114 -26z" />
<glyph unicode="~" d="M205 545v164q159 71 198 71h31q25 0 135 -41t133 -41h21q11 0 55.5 18.5t83.5 37.5l39 18v-164q-145 -71 -180 -71h-31q-12 0 -128 40.5t-138 40.5h-21q-13 0 -62.5 -18t-92.5 -36z" />
<glyph unicode="&#xa0;" />
<glyph unicode="&#xa1;" d="M451 1024h204v-205h-204v205zM467 598h174v-1008h-174v1008z" />
<glyph unicode="&#xa2;" d="M696 -225h-164v225q-148 12 -217 89t-69 237v368q0 157 69.5 234.5t216.5 89.5v211h164v-207h162v-154h-285q-75 0 -114 -35t-39 -98v-450q0 -63 39 -98t114 -35h285v-154h-162v-223z" />
<glyph unicode="&#xa3;" d="M188 696v150h144v239q0 173 94.5 261t273.5 88h199v-156h-219q-75 0 -122.5 -45.5t-47.5 -108.5v-278h262v-150h-262v-546h405v-150h-727v150h144v546h-144z" />
<glyph unicode="&#xa4;" d="M29 211l145 145q-24 64 -24 160v201q0 97 24 162l-145 147l116 117l140 -139q73 40 213 40h108q134 0 213 -43l142 142l116 -117l-149 -149q26 -62 26 -160v-201q0 -93 -24 -158l147 -147l-116 -117l-138 137q-82 -43 -217 -43h-108q-141 0 -215 43l-138 -137zM780 475 v283q0 63 -39 98t-114 35h-150q-75 0 -114 -35t-39 -98v-283q0 -63 39 -98t114 -35h150q75 0 114 35t39 98z" />
<glyph unicode="&#xa5;" d="M909 236h-266v-236h-184v236h-266v153h266v154h-266v153h260l-340 738h196l250 -560l248 560h186l-346 -738h262v-153h-266v-154h266v-153z" />
<glyph unicode="&#xa6;" d="M635 -225h-164v737h164v-737zM635 922h-164v737h164v-737z" />
<glyph unicode="&#xa7;" d="M231 727q0 73 25.5 131.5t65.5 87.5q-62 65 -62 180v21q0 150 78 218.5t229 68.5h254v-154h-274q-48 0 -80.5 -24t-32.5 -68v-82q0 -92 98 -92h60q280 0 280 -297v-10q0 -141 -90 -220q29 -21 45.5 -70.5t16.5 -109.5v-20q0 -150 -78 -218.5t-229 -68.5h-254v154h274 q48 0 80.5 24t32.5 68v82q0 92 -90 92h-68q-281 0 -281 297v10zM592 860h-115q-71 0 -71 -92v-92q0 -46 26.5 -74.5t81.5 -28.5h113q33 0 52 24t19 69v92q0 48 -22 75t-84 27z" />
<glyph unicode="&#xa8;" d="M844 1219h-174v163h174v-163zM434 1219h-174v163h174v-163z" />
<glyph unicode="&#xa9;" d="M731 322h-151q-107 0 -164.5 48.5t-57.5 143.5v406q0 95 57.5 143.5t164.5 48.5h153v-104h-164q-44 0 -69 -25t-25 -61v-410q0 -36 25 -61t69 -25h162v-104zM1055 348q0 -171 -88.5 -259.5t-245.5 -88.5h-336q-157 0 -245.5 88.5t-88.5 259.5v737q0 173 88 261t246 88 h336q158 0 246 -88t88 -261v-737zM907 301v829q0 68 -49.5 120.5t-136.5 52.5h-336q-88 0 -137 -52.5t-49 -120.5v-829q0 -68 49 -120t137 -52h336q89 0 137.5 52t48.5 120z" />
<glyph unicode="&#xaa;" d="M848 664h-92q-47 0 -82 41q-33 -41 -88 -41h-107q-118 0 -170.5 47t-52.5 161v31q0 238 225 238h152v78q0 46 -25.5 68t-83.5 22h-207v125h193q134 0 198 -58.5t64 -187.5v-371q0 -24 17 -34.5t59 -10.5v-108zM815 0h-514v154h514v-154zM561 784q25 0 41 6.5t22 20.5 t7.5 23.5t1.5 25.5v162h-146q-40 0 -66 -26t-26 -66v-66q0 -80 76 -80h90z" />
<glyph unicode="&#xab;" d="M547 188h-135l-183 424l183 424h135l-129 -424zM874 188h-135l-182 424l182 424h135l-129 -424z" />
<glyph unicode="&#xac;" d="M977 217h-174v346h-676v154h850v-500z" />
<glyph unicode="&#xad;" d="M885 563h-666v154h666v-154z" />
<glyph unicode="&#xae;" d="M1055 348q0 -171 -88.5 -259.5t-245.5 -88.5h-336q-157 0 -245.5 88.5t-88.5 259.5v737q0 173 88 261t246 88h336q158 0 246 -88t88 -261v-737zM907 301v829q0 68 -49.5 120.5t-136.5 52.5h-336q-88 0 -137 -52.5t-49 -120.5v-829q0 -68 49 -120t137 -52h336 q89 0 137.5 52t48.5 120zM838 326h-125l-160 323h-92v-323h-115v786h219q213 0 213 -176v-109q0 -128 -110 -159zM653 825v111q0 42 -21 61t-67 19h-104v-273h104q46 0 67 19.5t21 62.5z" />
<glyph unicode="&#xaf;" d="M813 1239h-522v143h522v-143z" />
<glyph unicode="&#xb0;" d="M842 1057q0 -118 -73.5 -181t-186.5 -63h-58q-113 0 -186.5 63t-73.5 181v135q0 119 73 181.5t187 62.5h58q114 0 187 -62.5t73 -181.5v-135zM700 1051v147q0 45 -33 78t-85 33h-58q-52 0 -85 -33t-33 -78v-147q0 -45 33 -78t85 -33h58q52 0 85 33t33 78z" />
<glyph unicode="&#xb1;" d="M942 563h-307v-270h-164v270h-307v154h307v323h164v-323h307v-154zM942 0h-778v154h778v-154z" />
<glyph unicode="&#xb2;" d="M799 420h-492v149l230 314q68 93 85 131t17 114v74q0 101 -125 101h-176v131h162q152 0 220 -58.5t68 -185.5v-47q0 -111 -18 -159.5t-77 -127.5q-10 -13 -15 -20l-211 -285h332v-131z" />
<glyph unicode="&#xb3;" d="M780 664q0 -128 -60.5 -186t-199.5 -58h-196v131h190q57 0 86 23t29 79v113q0 50 -31 78t-82 28h-145v132h129q49 0 80.5 27.5t31.5 78.5v86q0 59 -26 83t-86 24h-176v131h178q264 0 264 -240v-72q0 -115 -90 -178q104 -55 104 -188v-92z" />
<glyph unicode="&#xb4;" d="M520 1188h-176l213 276h213z" />
<glyph unicode="&#xb5;" d="M385 -348h-174v1372h174v-737q0 -61 35.5 -97t97.5 -36h70q68 0 100.5 36t32.5 76v758h174v-1024h-164v47q-67 -47 -164 -47h-28q-93 0 -154 20v-368z" />
<glyph unicode="&#xb6;" d="M651 0h-170v766h-12q-181 0 -261.5 70t-80.5 243v27q0 173 82 250.5t260 77.5h182v-144h-205q-74 0 -113.5 -39.5t-39.5 -103.5v-109q0 -63 39 -98t114 -35h205v-905zM928 0h-164v1434h164v-1434z" />
<glyph unicode="&#xb7;" d="M655 532h-204v205h204v-205z" />
<glyph unicode="&#xb8;" d="M549 -410h-174v131h137q68 0 68 64q0 34 -17.5 46.5t-54.5 12.5h-100v258h143v-145q95 0 136.5 -35.5t41.5 -136.5q0 -52 -12.5 -89.5t-30 -57t-43.5 -31t-47 -14.5t-47 -3z" />
<glyph unicode="&#xb9;" d="M805 420h-490v131h187v745l-203 -79v139l186 78h168v-883h152v-131z" />
<glyph unicode="&#xba;" d="M836 0h-566v154h566v-154zM819 913q0 -129 -63 -187t-197 -58h-20q-135 0 -199 58t-64 187v279q0 129 64 187.5t199 58.5h20q134 0 197 -58.5t63 -187.5v-279zM680 891v323q0 47 -29 73t-86 26h-35q-56 0 -85 -26t-29 -73v-323q0 -47 29 -72.5t85 -25.5h35q115 0 115 98z " />
<glyph unicode="&#xbb;" d="M692 188h-135l129 424l-129 424h135l182 -424zM365 188h-136l129 424l-129 424h136l182 -424z" />
<glyph unicode="&#xbc;" d="M379 420h-320v131h99v739l-135 -80v146l139 78h147v-883h70v-131zM1081 240h-61v-240h-143v240h-207v151l110 623h142l-127 -643h73l56 293h96v-293h61v-131zM920 1659l-525 -1884h-151l524 1884h152z" />
<glyph unicode="&#xbd;" d="M379 420h-320v131h99v739l-135 -80v146l139 78h147v-883h70v-131zM1096 0h-348v150l159 354q20 41 24.5 77t4.5 128v94q0 80 -84 80h-74v131h60q147 0 197 -48.5t50 -174.5v-68q0 -140 -6 -188t-30 -93l-146 -311h193v-131zM928 1659l-525 -1884h-151l496 1884h180z" />
<glyph unicode="&#xbe;" d="M406 664q0 -130 -55.5 -187t-192.5 -57h-115v127h109q56 0 83 23t27 79v121q0 51 -29 79t-79 28h-64v122h47q49 0 79 28t30 79v94q0 59 -25 83t-84 24h-94v127h96q129 0 190.5 -57.5t61.5 -182.5v-72q0 -115 -90 -178q105 -56 105 -188v-92zM1081 240h-61v-240h-143v240 h-207v151l110 623h142l-127 -643h73l56 293h96v-293h61v-131zM907 1659l-524 -1884h-152l525 1884h151z" />
<glyph unicode="&#xbf;" d="M506 1024h205v-205h-205v205zM268 -37q0 54 2.5 82.5t8.5 59t24 56.5t42 55t69 75l108 110v197h174v-248l-118 -125q-93 -97 -114.5 -136t-21.5 -107v-103q0 -63 37.5 -98t112.5 -35h256v-156h-236q-344 0 -344 308v65z" />
<glyph unicode="&#xc0;" d="M731 1487h-170l-270 235h227zM721 516l-168 782l-166 -782h334zM1014 0h-183l-77 362h-400l-80 -362h-182l346 1434h236z" />
<glyph unicode="&#xc1;" d="M541 1487h-170l213 235h227zM721 516l-168 782l-182 -782h350zM1014 0h-183l-77 362h-400l-80 -362h-182l346 1434h236z" />
<glyph unicode="&#xc2;" d="M872 1495h-198l-123 131l-123 -131h-197l226 236h188zM721 516l-168 782l-166 -782h334zM1014 0h-183l-77 362h-400l-80 -362h-182l346 1434h236z" />
<glyph unicode="&#xc3;" d="M721 516l-168 782l-166 -782h334zM1014 0h-183l-77 362h-400l-80 -362h-182l346 1434h236zM276 1505v148q119 67 158 67h31q25 0 114.5 -41t112.5 -41h21q11 0 45.5 18.5t63.5 37.5l28 18v-147q-104 -68 -139 -68h-31q-12 0 -107.5 41t-117.5 41h-21q-13 0 -52.5 -18.5 t-72.5 -36.5z" />
<glyph unicode="&#xc4;" d="M721 516l-168 782l-166 -782h334zM1014 0h-183l-77 362h-400l-80 -362h-182l346 1434h236zM854 1505h-174v164h151zM444 1505h-174v164h174v-164z" />
<glyph unicode="&#xc5;" d="M743 1518q-3 -94 -57 -136l328 -1382h-183l-77 362h-400l-80 -362h-182l334 1380q-59 46 -59 138v59q0 86 50.5 130t131.5 44h12q81 0 131.5 -44t50.5 -130v-59zM721 516l-168 782l-166 -782h334zM627 1516v63q0 78 -66 78h-12q-36 0 -53 -22t-17 -56v-63q0 -34 17 -56 t53 -22h12q66 0 66 78z" />
<glyph unicode="&#xc6;" d="M1061 0h-432l-31 362h-309l-86 -362h-172l360 1434h629v-150h-354l47 -469h297v-149h-281l51 -516h281v-150zM506 1284l-180 -768h254z" />
<glyph unicode="&#xc7;" d="M657 -410h-174v131h138q67 0 67 64q0 34 -17.5 46.5t-54.5 12.5h-100v160q-143 17 -218 103.5t-75 240.5v737q0 173 95 261t274 88h291v-156h-312q-75 0 -122.5 -45.5t-47.5 -108.5v-815q0 -63 47.5 -108t122.5 -45h312v-156h-224v-43q95 0 137 -35.5t42 -136.5 q0 -52 -12.5 -89.5t-30 -57t-44 -31t-47.5 -14.5t-47 -3z" />
<glyph unicode="&#xc8;" d="M721 1487h-170l-270 235h227zM895 0h-684v1434h684v-150h-506v-469h455v-149h-455v-516h506v-150z" />
<glyph unicode="&#xc9;" d="M543 1487h-170l213 235h227zM895 0h-684v1434h684v-150h-506v-469h455v-149h-455v-516h506v-150z" />
<glyph unicode="&#xca;" d="M874 1495h-198l-123 131l-123 -131h-197l226 236h188zM895 0h-684v1434h684v-150h-506v-469h455v-149h-455v-516h506v-150z" />
<glyph unicode="&#xcb;" d="M895 0h-684v1434h684v-150h-506v-469h455v-149h-455v-516h506v-150zM844 1505h-174v164h174v-164zM434 1505h-174v164h174v-164z" />
<glyph unicode="&#xcc;" d="M719 1487h-170l-270 235h227zM831 0h-546v150h184v1134h-184v150h546v-150h-184v-1134h184v-150z" />
<glyph unicode="&#xcd;" d="M532 1487h-170l213 235h228zM825 0h-546v150h184v1134h-184v150h546v-150h-184v-1134h184v-150z" />
<glyph unicode="&#xce;" d="M874 1495h-198l-123 131l-123 -131h-197l226 236h188zM827 0h-546v150h184v1134h-184v150h546v-150h-184v-1134h184v-150z" />
<glyph unicode="&#xcf;" d="M825 0h-546v150h184v1134h-184v150h546v-150h-184v-1134h184v-150zM846 1505h-174v164h174v-164zM436 1505h-174v164h174v-164z" />
<glyph unicode="&#xd0;" d="M956 324q0 -176 -81 -250t-267 -74h-422v666h-116v153h116v615h398q185 0 278.5 -74.5t93.5 -245.5v-790zM778 303v830q0 67 -41 107t-108 40h-264v-461h237v-153h-237v-512h262q78 0 114.5 35.5t36.5 113.5z" />
<glyph unicode="&#xd1;" d="M942 0h-293l-321 1282v-1282h-166v1434h291l323 -1282v1282h166v-1434zM272 1505v148q119 67 158 67h31q25 0 114.5 -41t112.5 -41h21q11 0 45.5 18.5t63.5 37.5l28 18v-147q-104 -68 -139 -68h-31q-12 0 -107.5 41t-117.5 41h-21q-13 0 -52.5 -18.5t-72.5 -36.5z" />
<glyph unicode="&#xd2;" d="M719 1487h-170l-270 235h227zM963 348q0 -173 -95 -260.5t-274 -87.5h-82q-179 0 -274 87.5t-95 260.5v737q0 173 95 261t274 88h82q179 0 274 -88t95 -261v-737zM784 309v815q0 63 -47.5 108.5t-122.5 45.5h-122q-75 0 -122.5 -45.5t-47.5 -108.5v-815q0 -63 47.5 -108 t122.5 -45h122q75 0 122.5 45t47.5 108z" />
<glyph unicode="&#xd3;" d="M547 1487h-170l213 235h227zM963 348q0 -173 -95 -260.5t-274 -87.5h-82q-179 0 -274 87.5t-95 260.5v737q0 173 95 261t274 88h82q179 0 274 -88t95 -261v-737zM784 309v815q0 63 -47.5 108.5t-122.5 45.5h-122q-75 0 -122.5 -45.5t-47.5 -108.5v-815q0 -63 47.5 -108 t122.5 -45h122q75 0 122.5 45t47.5 108z" />
<glyph unicode="&#xd4;" d="M872 1495h-198l-123 131l-123 -131h-197l226 236h188zM963 348q0 -173 -95 -260.5t-274 -87.5h-82q-179 0 -274 87.5t-95 260.5v737q0 173 95 261t274 88h82q179 0 274 -88t95 -261v-737zM784 309v815q0 63 -47.5 108.5t-122.5 45.5h-122q-75 0 -122.5 -45.5 t-47.5 -108.5v-815q0 -63 47.5 -108t122.5 -45h122q75 0 122.5 45t47.5 108z" />
<glyph unicode="&#xd5;" d="M963 348q0 -173 -95 -260.5t-274 -87.5h-82q-179 0 -274 87.5t-95 260.5v737q0 173 95 261t274 88h82q179 0 274 -88t95 -261v-737zM784 309v815q0 63 -47.5 108.5t-122.5 45.5h-122q-75 0 -122.5 -45.5t-47.5 -108.5v-815q0 -63 47.5 -108t122.5 -45h122q75 0 122.5 45 t47.5 108zM270 1505v148q119 67 158 67h31q25 0 114.5 -41t112.5 -41h21q11 0 45.5 18.5t63.5 37.5l28 18v-147q-104 -68 -139 -68h-31q-12 0 -107.5 41t-117.5 41h-21q-13 0 -52.5 -18.5t-72.5 -36.5z" />
<glyph unicode="&#xd6;" d="M852 1505h-174v164h174v-164zM442 1505h-174v164h174v-164zM963 348q0 -173 -95 -260.5t-274 -87.5h-82q-179 0 -274 87.5t-95 260.5v737q0 173 95 261t274 88h82q179 0 274 -88t95 -261v-737zM784 309v815q0 63 -47.5 108.5t-122.5 45.5h-122q-75 0 -122.5 -45.5 t-47.5 -108.5v-815q0 -63 47.5 -108t122.5 -45h122q75 0 122.5 45t47.5 108z" />
<glyph unicode="&#xd7;" d="M793 281l-240 237l-240 -237l-114 114l237 240l-237 239l114 115l240 -237l240 237l114 -115l-237 -239l237 -240z" />
<glyph unicode="&#xd8;" d="M963 348q0 -173 -95 -260.5t-274 -87.5h-82q-55 0 -80 4l-53 -190h-156l66 235q-146 85 -146 299v737q0 173 95 261t274 88h82q26 0 76 -4l53 190h156l-66 -236q150 -83 150 -299v-737zM784 309v815q0 40 -22 76l-289 -1044h141q75 0 122.5 45t47.5 108zM322 309 q0 -41 18 -71l287 1040h-135q-75 0 -122.5 -45.5t-47.5 -108.5v-815z" />
<glyph unicode="&#xd9;" d="M678 1487h-170l-270 235h227zM946 348q0 -173 -94.5 -260.5t-273.5 -87.5h-52q-179 0 -273.5 87.5t-94.5 260.5v1086h178v-1125q0 -63 47.5 -108t122.5 -45h92q75 0 122.5 45t47.5 108v1125h178v-1086z" />
<glyph unicode="&#xda;" d="M602 1487h-170l213 235h227zM946 348q0 -173 -94.5 -260.5t-273.5 -87.5h-52q-179 0 -273.5 87.5t-94.5 260.5v1086h178v-1125q0 -63 47.5 -108t122.5 -45h92q75 0 122.5 45t47.5 108v1125h178v-1086z" />
<glyph unicode="&#xdb;" d="M883 1495h-199l-123 131l-123 -131h-196l225 236h188zM946 348q0 -173 -94.5 -260.5t-273.5 -87.5h-52q-179 0 -273.5 87.5t-94.5 260.5v1086h178v-1125q0 -63 47.5 -108t122.5 -45h92q75 0 122.5 45t47.5 108v1125h178v-1086z" />
<glyph unicode="&#xdc;" d="M848 1505h-174v164h174v-164zM438 1505h-174v164h174v-164zM946 348q0 -173 -94.5 -260.5t-273.5 -87.5h-52q-179 0 -273.5 87.5t-94.5 260.5v1086h178v-1125q0 -63 47.5 -108t122.5 -45h92q75 0 122.5 45t47.5 108v1125h178v-1086z" />
<glyph unicode="&#xdd;" d="M551 1487h-170l213 235h227zM1014 1434l-373 -768v-666h-184v666l-367 768h197l270 -596l270 596h187z" />
<glyph unicode="&#xde;" d="M932 614q0 -323 -348 -323h-213v-291h-178v1434h178v-267h209q173 0 262.5 -77t89.5 -242v-234zM754 594v272q0 77 -36.5 112.5t-113.5 35.5h-233v-570h233q78 0 114 36t36 114z" />
<glyph unicode="&#xdf;" d="M334 0h-174v1147q0 74 25 131t68.5 90t97.5 49.5t116 16.5h80q180 0 264 -77t84 -251v-256h-160q-61 0 -86.5 -22.5t-25.5 -69.5v-31q0 -92 88 -92q114 0 178.5 -66t64.5 -180v-133q0 -114 -71 -185t-211 -71h-230v154h242q96 0 96 92v143q0 44 -21.5 68t-72.5 24 q-104 0 -170.5 68t-66.5 180v21q0 130 69 184t203 61v152q0 63 -39.5 98t-114.5 35h-110q-36 0 -62 -11.5t-38.5 -30t-17.5 -36t-5 -35.5v-1167z" />
<glyph unicode="&#xe0;" d="M967 0h-113q-28 0 -59 16.5t-54 44.5q-48 -61 -125 -61h-182q-157 0 -227 62.5t-70 213.5v41q0 318 299 318h254v102q0 63 -39 98t-114 35h-318v154h297q179 0 263.5 -77.5t84.5 -250.5v-491q0 -32 23.5 -47t79.5 -15v-143zM596 154q27 0 46 7t28 16.5t14 25.5t5.5 26 t0.5 27v225h-256q-54 0 -88.5 -34.5t-34.5 -88.5v-102q0 -54 24.5 -78t78.5 -24h182zM700 1188h-176l-250 276h213z" />
<glyph unicode="&#xe1;" d="M967 0h-113q-28 0 -59 16.5t-54 44.5q-48 -61 -125 -61h-182q-157 0 -227 62.5t-70 213.5v41q0 318 299 318h254v102q0 63 -39 98t-114 35h-318v154h297q179 0 263.5 -77.5t84.5 -250.5v-491q0 -32 23.5 -47t79.5 -15v-143zM596 154q27 0 46 7t28 16.5t14 25.5t5.5 26 t0.5 27v225h-256q-54 0 -88.5 -34.5t-34.5 -88.5v-102q0 -54 24.5 -78t78.5 -24h182zM590 1188h-176l213 276h213z" />
<glyph unicode="&#xe2;" d="M967 0h-113q-28 0 -59 16.5t-54 44.5q-48 -61 -125 -61h-182q-157 0 -227 62.5t-70 213.5v41q0 318 299 318h254v102q0 63 -39 98t-114 35h-318v154h297q179 0 263.5 -77.5t84.5 -250.5v-491q0 -32 23.5 -47t79.5 -15v-143zM596 154q27 0 46 7t28 16.5t14 25.5t5.5 26 t0.5 27v225h-256q-54 0 -88.5 -34.5t-34.5 -88.5v-102q0 -54 24.5 -78t78.5 -24h182zM842 1188h-199l-123 153l-123 -153h-196l229 276h180z" />
<glyph unicode="&#xe3;" d="M967 0h-113q-28 0 -59 16.5t-54 44.5q-48 -61 -125 -61h-182q-157 0 -227 62.5t-70 213.5v41q0 318 299 318h254v102q0 63 -39 98t-114 35h-318v154h297q179 0 263.5 -77.5t84.5 -250.5v-491q0 -32 23.5 -47t79.5 -15v-143zM596 154q27 0 46 7t28 16.5t14 25.5t5.5 26 t0.5 27v225h-256q-54 0 -88.5 -34.5t-34.5 -88.5v-102q0 -54 24.5 -78t78.5 -24h182zM217 1219v147q119 68 158 68h31q25 0 114.5 -41t112.5 -41h20q11 0 45.5 18t63.5 36l29 19v-147q-105 -68 -140 -68h-30q-12 0 -108 41t-118 41h-20q-13 0 -52.5 -18t-72.5 -36z" />
<glyph unicode="&#xe4;" d="M967 0h-113q-28 0 -59 16.5t-54 44.5q-48 -61 -125 -61h-182q-157 0 -227 62.5t-70 213.5v41q0 318 299 318h254v102q0 63 -39 98t-114 35h-318v154h297q179 0 263.5 -77.5t84.5 -250.5v-491q0 -32 23.5 -47t79.5 -15v-143zM596 154q27 0 46 7t28 16.5t14 25.5t5.5 26 t0.5 27v225h-256q-54 0 -88.5 -34.5t-34.5 -88.5v-102q0 -54 24.5 -78t78.5 -24h182zM801 1219h-174v163h174v-163zM391 1219h-174v163h174v-163z" />
<glyph unicode="&#xe5;" d="M705 1296q0 -84 -51.5 -129t-131.5 -45h-12q-80 0 -131 45t-51 129v60q0 86 50.5 130t131.5 44h12q81 0 132 -44.5t51 -129.5v-60zM588 1294v64q0 78 -66 78h-12q-36 0 -53 -22t-17 -56v-64q0 -34 17 -55.5t53 -21.5h12q66 0 66 77zM967 0h-113q-28 0 -59 16.5t-54 44.5 q-48 -61 -125 -61h-182q-157 0 -227 62.5t-70 213.5v41q0 318 299 318h254v102q0 63 -39 98t-114 35h-318v154h297q179 0 263.5 -77.5t84.5 -250.5v-491q0 -32 23.5 -47t79.5 -15v-143zM596 154q27 0 46 7t28 16.5t14 25.5t5.5 26t0.5 27v225h-256q-54 0 -88.5 -34.5 t-34.5 -88.5v-102q0 -54 24.5 -78t78.5 -24h182z" />
<glyph unicode="&#xe6;" d="M991 0h-182q-101 0 -161.5 22t-88.5 74q-23 -41 -74.5 -68.5t-128.5 -27.5h-28q-137 0 -207 64t-70 212v25q0 158 69.5 237.5t219.5 79.5h135v119q0 65 -32 99t-105 34h-215v154h194q92 0 146 -18t100 -58q43 41 84.5 58.5t120.5 17.5h14q144 0 209.5 -79.5t65.5 -237.5 v-238h-412v-199q6 -120 143 -120h203v-150zM475 252v217h-141q-53 0 -83 -35.5t-30 -91.5v-90q0 -54 24.5 -78t78.5 -24h53q33 0 54.5 9.5t30 27t11 31.5t2.5 34zM645 741v-123h246v134q0 56 -27.5 89t-79.5 33h-16q-72 0 -97.5 -32.5t-25.5 -100.5z" />
<glyph unicode="&#xe7;" d="M637 -410h-174v131h137q68 0 68 64q0 34 -17.5 46.5t-54.5 12.5h-100v162q-128 19 -189 96t-61 226v368q0 173 84.5 250.5t263.5 77.5h264v-154h-285q-75 0 -114 -35t-39 -98v-450q0 -63 39 -98t114 -35h285v-154h-219v-43q95 0 136.5 -35.5t41.5 -136.5 q0 -52 -12.5 -89.5t-30 -57t-43.5 -31t-47 -14.5t-47 -3z" />
<glyph unicode="&#xe8;" d="M846 0h-305q-180 0 -264 77t-84 251v368q0 175 75.5 251.5t251.5 76.5h96q147 0 221 -81t74 -236v-267h-544v-153q0 -63 39 -98t114 -35h326v-154zM367 737v-143h374v154q0 54 -34.5 88t-88.5 34h-118q-73 0 -103 -33.5t-30 -99.5zM748 1188h-177l-249 276h213z" />
<glyph unicode="&#xe9;" d="M846 0h-305q-180 0 -264 77t-84 251v368q0 175 75.5 251.5t251.5 76.5h96q147 0 221 -81t74 -236v-267h-544v-153q0 -63 39 -98t114 -35h326v-154zM367 737v-143h374v154q0 54 -34.5 88t-88.5 34h-118q-73 0 -103 -33.5t-30 -99.5zM623 1188h-177l213 276h213z" />
<glyph unicode="&#xea;" d="M846 0h-305q-180 0 -264 77t-84 251v368q0 175 75.5 251.5t251.5 76.5h96q147 0 221 -81t74 -236v-267h-544v-153q0 -63 39 -98t114 -35h326v-154zM367 737v-143h374v154q0 54 -34.5 88t-88.5 34h-118q-73 0 -103 -33.5t-30 -99.5zM877 1188h-199l-123 153l-123 -153 h-196l229 276h180z" />
<glyph unicode="&#xeb;" d="M846 0h-305q-180 0 -264 77t-84 251v368q0 175 75.5 251.5t251.5 76.5h96q147 0 221 -81t74 -236v-267h-544v-153q0 -63 39 -98t114 -35h326v-154zM367 737v-143h374v154q0 54 -34.5 88t-88.5 34h-118q-73 0 -103 -33.5t-30 -99.5zM856 1219h-174v163h174v-163zM446 1219 h-174v163h174v-163z" />
<glyph unicode="&#xec;" d="M731 1188h-176l-250 276h213zM942 0h-477v870h-301v154h475v-870h303v-154z" />
<glyph unicode="&#xed;" d="M596 1188h-176l213 276h213zM942 0h-477v870h-301v154h475v-870h303v-154z" />
<glyph unicode="&#xee;" d="M881 1188h-199l-123 153l-123 -153h-196l229 276h180zM942 0h-477v870h-301v154h475v-870h303v-154z" />
<glyph unicode="&#xef;" d="M846 1219h-174v163h174v-163zM436 1219h-174v163h174v-163zM942 0h-477v870h-301v154h475v-870h303v-154z" />
<glyph unicode="&#xf0;" d="M621 1274l-68 -115h-168l72 123h-156v152h244l61 102h168l-74 -123q211 -66 211 -328v-737q0 -167 -92.5 -257.5t-230.5 -90.5h-72q-138 0 -230.5 90.5t-92.5 257.5v266q0 172 84 250t260 78h200v182q0 51 -31.5 93t-84.5 57zM737 788h-221q-74 0 -111.5 -36t-37.5 -99 v-344q0 -65 43 -110t116 -45h52q73 0 116 45t43 110v479z" />
<glyph unicode="&#xf1;" d="M352 0h-174v1024h164v-49q63 49 164 49h94q165 0 246.5 -77.5t81.5 -250.5v-696h-174v737q0 61 -36 97t-97 36h-136q-68 0 -100.5 -36t-32.5 -76v-758zM281 1219v147q118 68 157 68h31q25 0 114.5 -41t112.5 -41h21q11 0 45.5 18t63.5 36l28 19v-147q-104 -68 -139 -68 h-31q-12 0 -107.5 41t-117.5 41h-21q-13 0 -52 -18t-72 -36z" />
<glyph unicode="&#xf2;" d="M926 328q0 -173 -84.5 -250.5t-263.5 -77.5h-68q-179 0 -263.5 77.5t-84.5 250.5v368q0 173 84.5 250.5t263.5 77.5h68q179 0 263.5 -77.5t84.5 -250.5v-368zM752 287v450q0 63 -39.5 98t-114.5 35h-109q-75 0 -114 -35t-39 -98v-450q0 -63 39 -98t114 -35h109 q75 0 114.5 35t39.5 98zM748 1188h-177l-249 276h213z" />
<glyph unicode="&#xf3;" d="M934 328q0 -173 -84.5 -250.5t-263.5 -77.5h-68q-179 0 -263.5 77.5t-84.5 250.5v368q0 173 84.5 250.5t263.5 77.5h68q179 0 263.5 -77.5t84.5 -250.5v-368zM760 287v450q0 63 -39.5 98t-114.5 35h-108q-75 0 -114.5 -35t-39.5 -98v-450q0 -63 39.5 -98t114.5 -35h108 q75 0 114.5 35t39.5 98zM522 1188h-176l213 276h213z" />
<glyph unicode="&#xf4;" d="M934 328q0 -173 -84.5 -250.5t-263.5 -77.5h-68q-179 0 -263.5 77.5t-84.5 250.5v368q0 173 84.5 250.5t263.5 77.5h68q179 0 263.5 -77.5t84.5 -250.5v-368zM760 287v450q0 63 -39.5 98t-114.5 35h-108q-75 0 -114.5 -35t-39.5 -98v-450q0 -63 39.5 -98t114.5 -35h108 q75 0 114.5 35t39.5 98zM874 1188h-198l-123 153l-123 -153h-197l230 276h180z" />
<glyph unicode="&#xf5;" d="M934 328q0 -173 -84.5 -250.5t-263.5 -77.5h-68q-179 0 -263.5 77.5t-84.5 250.5v368q0 173 84.5 250.5t263.5 77.5h68q179 0 263.5 -77.5t84.5 -250.5v-368zM760 287v450q0 63 -39.5 98t-114.5 35h-108q-75 0 -114.5 -35t-39.5 -98v-450q0 -63 39.5 -98t114.5 -35h108 q75 0 114.5 35t39.5 98zM266 1219v147q119 68 158 68h31q25 0 114.5 -41t112.5 -41h20q11 0 45.5 18t63.5 36l29 19v-147q-105 -68 -140 -68h-30q-12 0 -108 41t-118 41h-20q-13 0 -52.5 -18t-72.5 -36z" />
<glyph unicode="&#xf6;" d="M934 328q0 -173 -84.5 -250.5t-263.5 -77.5h-68q-179 0 -263.5 77.5t-84.5 250.5v368q0 173 84.5 250.5t263.5 77.5h68q179 0 263.5 -77.5t84.5 -250.5v-368zM760 287v450q0 63 -39.5 98t-114.5 35h-108q-75 0 -114.5 -35t-39.5 -98v-450q0 -63 39.5 -98t114.5 -35h108 q75 0 114.5 35t39.5 98zM846 1219h-174v163h174v-163zM436 1219h-174v163h174v-163z" />
<glyph unicode="&#xf7;" d="M942 563h-778v154h778v-154zM655 133h-204v205h204v-205zM655 942h-204v205h204v-205z" />
<glyph unicode="&#xf8;" d="M934 328q0 -173 -84.5 -250.5t-263.5 -77.5h-109l-55 -182h-160l64 213q-156 68 -156 297v368q0 173 84.5 250.5t263.5 77.5h68q29 0 41 -2l57 184h158l-66 -215q158 -67 158 -295v-368zM344 287q0 -56 31 -92l207 675h-84q-75 0 -114.5 -35t-39.5 -98v-450zM760 287v450 q0 57 -33 90l-205 -673h84q75 0 114.5 35t39.5 98z" />
<glyph unicode="&#xf9;" d="M915 0h-163v47q-67 -47 -164 -47h-70q-165 0 -246.5 77.5t-81.5 250.5v696h175v-737q0 -61 35.5 -97t97.5 -36h110q65 0 97 33t36 73v764h174v-1024zM702 1188h-176l-250 276h213z" />
<glyph unicode="&#xfa;" d="M915 0h-163v47q-67 -47 -164 -47h-70q-165 0 -246.5 77.5t-81.5 250.5v696h175v-737q0 -61 35.5 -97t97.5 -36h110q65 0 97 33t36 73v764h174v-1024zM621 1188h-177l213 276h213z" />
<glyph unicode="&#xfb;" d="M915 0h-163v47q-67 -47 -164 -47h-70q-165 0 -246.5 77.5t-81.5 250.5v696h175v-737q0 -61 35.5 -97t97.5 -36h110q65 0 97 33t36 73v764h174v-1024zM872 1188h-198l-123 153l-123 -153h-197l230 276h180z" />
<glyph unicode="&#xfc;" d="M915 0h-163v47q-67 -47 -164 -47h-70q-165 0 -246.5 77.5t-81.5 250.5v696h175v-737q0 -61 35.5 -97t97.5 -36h110q65 0 97 33t36 73v764h174v-1024zM840 1219h-174v163h174v-163zM430 1219h-174v163h174v-163z" />
<glyph unicode="&#xfd;" d="M283 -195h86q48 0 73 18.5t37 63.5l29 113h-41l-338 1024h188l256 -858l224 858h178l-318 -1135q-21 -79 -47.5 -128t-64 -72t-73 -30t-91.5 -7h-98v153zM575 1188h-176l213 276h213z" />
<glyph unicode="&#xfe;" d="M373 -348h-174v1782h174v-1782zM928 328q0 -173 -84.5 -250.5t-263.5 -77.5h-269v154h289q75 0 114.5 35t39.5 98v450q0 63 -39.5 98t-114.5 35h-94q-68 0 -100.5 -36t-32.5 -76l-117 59q66 207 270 207h54q180 0 264 -77t84 -251v-368z" />
<glyph unicode="&#xff;" d="M283 -195h86q48 0 73 18.5t37 63.5l29 113h-41l-338 1024h188l256 -858l224 858h178l-318 -1135q-21 -79 -47.5 -128t-64 -72t-73 -30t-91.5 -7h-98v153zM844 1219h-174v163h174v-163zM434 1219h-174v163h174v-163z" />
<glyph unicode="&#x152;" d="M1071 0h-649q-179 0 -274 87.5t-95 260.5v737q0 173 95 261t274 88h649v-150h-360q49 -90 49 -199v-270h280v-149h-280v-318q0 -112 -49 -198h360v-150zM582 309v815q0 63 -47.5 108.5t-122.5 45.5h-11q-75 0 -122.5 -45.5t-47.5 -108.5v-815q0 -63 47.5 -108t122.5 -45 h11q75 0 122.5 45t47.5 108z" />
<glyph unicode="&#x153;" d="M1001 0h-188q-98 0 -153 19.5t-87 60.5q-37 -40 -82.5 -60t-130.5 -20h-6q-159 0 -230 75.5t-71 241.5v390q0 173 70.5 245t230.5 72h6q79 0 123 -20t86 -60q66 80 215 80h2q139 0 205 -72t66 -225v-287h-395v-157q0 -133 147 -133h192v-150zM492 283v458q0 133 -111 133 h-47q-111 0 -111 -133v-458q0 -133 111 -133h47q111 0 111 133zM662 741v-151h229v162q0 59 -24 90.5t-83 31.5h-6q-69 0 -92.5 -32.5t-23.5 -100.5z" />
<glyph unicode="&#x178;" d="M1014 1434l-373 -768v-666h-184v666l-367 768h197l270 -596l270 596h187zM846 1505h-174v164h174v-164zM436 1505h-174v164h174v-164z" />
<glyph unicode="&#x2c6;" d="M872 1188h-198l-123 153l-123 -153h-197l230 276h180z" />
<glyph unicode="&#x2dc;" d="M266 1219v147q119 68 158 68h31q25 0 114.5 -41t112.5 -41h20q11 0 45.5 18t63.5 36l29 19v-147q-105 -68 -140 -68h-30q-12 0 -108 41t-118 41h-20q-13 0 -52.5 -18t-72.5 -36z" />
<glyph unicode="&#x2000;" horiz-adv-x="875" />
<glyph unicode="&#x2001;" horiz-adv-x="1751" />
<glyph unicode="&#x2002;" horiz-adv-x="875" />
<glyph unicode="&#x2003;" horiz-adv-x="1751" />
<glyph unicode="&#x2004;" horiz-adv-x="583" />
<glyph unicode="&#x2005;" horiz-adv-x="437" />
<glyph unicode="&#x2006;" horiz-adv-x="291" />
<glyph unicode="&#x2007;" horiz-adv-x="291" />
<glyph unicode="&#x2008;" horiz-adv-x="218" />
<glyph unicode="&#x2009;" horiz-adv-x="350" />
<glyph unicode="&#x200a;" horiz-adv-x="97" />
<glyph unicode="&#x2010;" d="M885 563h-666v154h666v-154z" />
<glyph unicode="&#x2011;" d="M885 563h-666v154h666v-154z" />
<glyph unicode="&#x2012;" d="M885 563h-666v154h666v-154z" />
<glyph unicode="&#x2013;" d="M942 563h-778v154h778v-154z" />
<glyph unicode="&#x2014;" d="M1038 563h-972v154h972v-154z" />
<glyph unicode="&#x2018;" d="M424 1110l113 322h143l-62 -322v-184h-194v184z" />
<glyph unicode="&#x2019;" d="M680 1249l-113 -321h-143l61 321v185h195v-185z" />
<glyph unicode="&#x201a;" d="M680 0l-113 -322h-143l61 322v184h195v-184z" />
<glyph unicode="&#x201c;" d="M266 1110l113 322h143l-61 -322v-184h-195v184zM584 1110l112 322h144l-62 -322v-184h-194v184z" />
<glyph unicode="&#x201d;" d="M840 1249l-113 -321h-143l61 321v185h195v-185zM522 1249l-112 -321h-144l62 321v185h194v-185z" />
<glyph unicode="&#x201e;" d="M840 0l-113 -322h-143l61 322v184h195v-184zM522 0l-112 -322h-144l62 322v184h194v-184z" />
<glyph unicode="&#x2022;" d="M707 481h-308v318h308v-318z" />
<glyph unicode="&#x2026;" d="M287 0h-205v205h205v-205zM655 0h-204v205h204v-205zM1024 0h-205v205h205v-205z" />
<glyph unicode="&#x202f;" horiz-adv-x="350" />
<glyph unicode="&#x2039;" d="M711 188h-136l-182 424l182 424h136l-129 -424z" />
<glyph unicode="&#x203a;" d="M528 188h-135l129 424l-129 424h135l183 -424z" />
<glyph unicode="&#x205f;" horiz-adv-x="437" />
<glyph unicode="&#x20ac;" d="M850 983v-149h-346v-199h346v-150h-346v-176q0 -63 47.5 -108t122.5 -45h250v-156h-230q-179 0 -273.5 87.5t-94.5 260.5v137h-144v150h144v199h-144v149h144v102q0 173 94.5 261t273.5 88h230v-156h-250q-75 0 -122.5 -45.5t-47.5 -108.5v-141h346z" />
<glyph unicode="&#x2122;" d="M1073 397h-135v860l-109 -518h-108l-111 518v-860h-133v916h-133v-916h-139v916h-176v121h665l86 -424l82 424h211v-1037z" />
<glyph unicode="&#x25fc;" horiz-adv-x="1024" d="M0 1024h1024v-1024h-1024v1024z" />
</font>
</defs>
</svg>
